  0
SECTION
  2
HEADER
  9
$ACADVER
  1
AC1024
  9
$ACADMAINTVER
 70
6
  9
$DWGCODEPAGE
  3
ANSI_1252
  9
$LASTSAVEDBY
  1
ezdxf
  9
$INSBASE
 10
0.0
 20
0.0
 30
0.0
  9
$EXTMIN
 10
1e+20
 20
1e+20
 30
1e+20
  9
$EXTMAX
 10
-1e+20
 20
-1e+20
 30
-1e+20
  9
$LIMMIN
 10
0.0
 20
0.0
  9
$LIMMAX
 10
420.0
 20
297.0
  9
$ORTHOMODE
 70
0
  9
$REGENMODE
 70
1
  9
$FILLMODE
 70
1
  9
$QTEXTMODE
 70
0
  9
$MIRRTEXT
 70
1
  9
$LTSCALE
 40
1.0
  9
$ATTMODE
 70
1
  9
$TEXTSIZE
 40
2.5
  9
$TRACEWID
 40
1.0
  9
$TEXTSTYLE
  7
Standard
  9
$CLAYER
  8
0
  9
$CELTYPE
  6
ByLayer
  9
$CECOLOR
 62
256
  9
$CELTSCALE
 40
1.0
  9
$DISPSILH
 70
0
  9
$DIMSCALE
 40
1.0
  9
$DIMASZ
 40
2.5
  9
$DIMEXO
 40
0.625
  9
$DIMDLI
 40
3.75
  9
$DIMRND
 40
0.0
  9
$DIMDLE
 40
0.0
  9
$DIMEXE
 40
1.25
  9
$DIMTP
 40
0.0
  9
$DIMTM
 40
0.0
  9
$DIMTXT
 40
2.5
  9
$DIMCEN
 40
2.5
  9
$DIMTSZ
 40
0.0
  9
$DIMTOL
 70
0
  9
$DIMLIM
 70
0
  9
$DIMTIH
 70
0
  9
$DIMTOH
 70
0
  9
$DIMSE1
 70
0
  9
$DIMSE2
 70
0
  9
$DIMTAD
 70
1
  9
$DIMZIN
 70
8
  9
$DIMBLK
  1

  9
$DIMASO
 70
1
  9
$DIMSHO
 70
1
  9
$DIMPOST
  1

  9
$DIMAPOST
  1

  9
$DIMALT
 70
0
  9
$DIMALTD
 70
3
  9
$DIMALTF
 40
0.03937007874
  9
$DIMLFAC
 40
1.0
  9
$DIMTOFL
 70
1
  9
$DIMTVP
 40
0.0
  9
$DIMTIX
 70
0
  9
$DIMSOXD
 70
0
  9
$DIMSAH
 70
0
  9
$DIMBLK1
  1

  9
$DIMBLK2
  1

  9
$DIMSTYLE
  2
ISO-25
  9
$DIMCLRD
 70
0
  9
$DIMCLRE
 70
0
  9
$DIMCLRT
 70
0
  9
$DIMTFAC
 40
1.0
  9
$DIMGAP
 40
0.625
  9
$DIMJUST
 70
0
  9
$DIMSD1
 70
0
  9
$DIMSD2
 70
0
  9
$DIMTOLJ
 70
0
  9
$DIMTZIN
 70
8
  9
$DIMALTZ
 70
0
  9
$DIMALTTZ
 70
0
  9
$DIMUPT
 70
0
  9
$DIMDEC
 70
2
  9
$DIMTDEC
 70
2
  9
$DIMALTU
 70
2
  9
$DIMALTTD
 70
3
  9
$DIMTXSTY
  7
Standard
  9
$DIMAUNIT
 70
0
  9
$DIMADEC
 70
0
  9
$DIMALTRND
 40
0.0
  9
$DIMAZIN
 70
0
  9
$DIMDSEP
 70
44
  9
$DIMATFIT
 70
3
  9
$DIMFRAC
 70
0
  9
$DIMLDRBLK
  1

  9
$DIMLUNIT
 70
2
  9
$DIMLWD
 70
-2
  9
$DIMLWE
 70
-2
  9
$DIMTMOVE
 70
0
  9
$DIMFXL
 40
1.0
  9
$DIMFXLON
 70
0
  9
$DIMJOGANG
 40
0.785398163397
  9
$DIMTFILL
 70
0
  9
$DIMTFILLCLR
 70
0
  9
$DIMARCSYM
 70
0
  9
$DIMLTYPE
  6

  9
$DIMLTEX1
  6

  9
$DIMLTEX2
  6

  9
$DIMTXTDIRECTION
 70
0
  9
$LUNITS
 70
2
  9
$LUPREC
 70
4
  9
$SKETCHINC
 40
1.0
  9
$FILLETRAD
 40
10.0
  9
$AUNITS
 70
0
  9
$AUPREC
 70
2
  9
$MENU
  1
.
  9
$ELEVATION
 40
0.0
  9
$PELEVATION
 40
0.0
  9
$THICKNESS
 40
0.0
  9
$LIMCHECK
 70
0
  9
$CHAMFERA
 40
0.0
  9
$CHAMFERB
 40
0.0
  9
$CHAMFERC
 40
0.0
  9
$CHAMFERD
 40
0.0
  9
$SKPOLY
 70
0
  9
$TDCREATE
 40
2459694.7686805557
  9
$TDUCREATE
 40
2458532.153996898
  9
$TDUPDATE
 40
2459694.7695023147
  9
$TDUUPDATE
 40
2458532.1544311
  9
$TDINDWG
 40
0.0
  9
$TDUSRTIMER
 40
0.0
  9
$USRTIMER
 70
1
  9
$ANGBASE
 50
0.0
  9
$ANGDIR
 70
0
  9
$PDMODE
 70
0
  9
$PDSIZE
 40
0.0
  9
$PLINEWID
 40
0.0
  9
$SPLFRAME
 70
0
  9
$SPLINETYPE
 70
6
  9
$SPLINESEGS
 70
8
  9
$HANDSEED
  5
222
  9
$SURFTAB1
 70
6
  9
$SURFTAB2
 70
6
  9
$SURFTYPE
 70
6
  9
$SURFU
 70
6
  9
$SURFV
 70
6
  9
$UCSBASE
  2

  9
$UCSNAME
  2

  9
$UCSORG
 10
0.0
 20
0.0
 30
0.0
  9
$UCSXDIR
 10
1.0
 20
0.0
 30
0.0
  9
$UCSYDIR
 10
0.0
 20
1.0
 30
0.0
  9
$UCSORTHOREF
  2

  9
$UCSORTHOVIEW
 70
0
  9
$UCSORGTOP
 10
0.0
 20
0.0
 30
0.0
  9
$UCSORGBOTTOM
 10
0.0
 20
0.0
 30
0.0
  9
$UCSORGLEFT
 10
0.0
 20
0.0
 30
0.0
  9
$UCSORGRIGHT
 10
0.0
 20
0.0
 30
0.0
  9
$UCSORGFRONT
 10
0.0
 20
0.0
 30
0.0
  9
$UCSORGBACK
 10
0.0
 20
0.0
 30
0.0
  9
$PUCSBASE
  2

  9
$PUCSNAME
  2

  9
$PUCSORG
 10
0.0
 20
0.0
 30
0.0
  9
$PUCSXDIR
 10
1.0
 20
0.0
 30
0.0
  9
$PUCSYDIR
 10
0.0
 20
1.0
 30
0.0
  9
$PUCSORTHOREF
  2

  9
$PUCSORTHOVIEW
 70
0
  9
$PUCSORGTOP
 10
0.0
 20
0.0
 30
0.0
  9
$PUCSORGBOTTOM
 10
0.0
 20
0.0
 30
0.0
  9
$PUCSORGLEFT
 10
0.0
 20
0.0
 30
0.0
  9
$PUCSORGRIGHT
 10
0.0
 20
0.0
 30
0.0
  9
$PUCSORGFRONT
 10
0.0
 20
0.0
 30
0.0
  9
$PUCSORGBACK
 10
0.0
 20
0.0
 30
0.0
  9
$USERI1
 70
0
  9
$USERI2
 70
0
  9
$USERI3
 70
0
  9
$USERI4
 70
0
  9
$USERI5
 70
0
  9
$USERR1
 40
0.0
  9
$USERR2
 40
0.0
  9
$USERR3
 40
0.0
  9
$USERR4
 40
0.0
  9
$USERR5
 40
0.0
  9
$WORLDVIEW
 70
1
  9
$SHADEDGE
 70
3
  9
$SHADEDIF
 70
70
  9
$TILEMODE
 70
1
  9
$MAXACTVP
 70
64
  9
$PINSBASE
 10
0.0
 20
0.0
 30
0.0
  9
$PLIMCHECK
 70
0
  9
$PEXTMIN
 10
1e+20
 20
1e+20
 30
1e+20
  9
$PEXTMAX
 10
-1e+20
 20
-1e+20
 30
-1e+20
  9
$PLIMMIN
 10
0.0
 20
0.0
  9
$PLIMMAX
 10
420.0
 20
297.0
  9
$UNITMODE
 70
0
  9
$VISRETAIN
 70
1
  9
$PLINEGEN
 70
0
  9
$PSLTSCALE
 70
1
  9
$TREEDEPTH
 70
3020
  9
$CMLSTYLE
  2
Standard
  9
$CMLJUST
 70
0
  9
$CMLSCALE
 40
20.0
  9
$PROXYGRAPHICS
 70
1
  9
$MEASUREMENT
 70
1
  9
$CELWEIGHT
370
-1
  9
$ENDCAPS
280
0
  9
$JOINSTYLE
280
0
  9
$LWDISPLAY
290
0
  9
$INSUNITS
 70
6
  9
$HYPERLINKBASE
  1

  9
$STYLESHEET
  1

  9
$XEDIT
290
1
  9
$CEPSNTYPE
380
0
  9
$PSTYLEMODE
290
1
  9
$FINGERPRINTGUID
  2
{C119BABF-4C26-47BA-8DA3-550BEA0769AC}
  9
$VERSIONGUID
  2
{EDD6219D-7680-4A78-BFA0-A24408DA8634}
  9
$EXTNAMES
290
1
  9
$PSVPSCALE
 40
0.0
  9
$OLESTARTUP
290
0
  9
$SORTENTS
280
127
  9
$INDEXCTL
280
0
  9
$HIDETEXT
280
1
  9
$XCLIPFRAME
280
0
  9
$HALOGAP
280
0
  9
$OBSCOLOR
 70
257
  9
$OBSLTYPE
280
0
  9
$INTERSECTIONDISPLAY
280
0
  9
$INTERSECTIONCOLOR
 70
257
  9
$DIMASSOC
280
2
  9
$PROJECTNAME
  1

  9
$CAMERADISPLAY
290
0
  9
$LENSLENGTH
 40
50.0
  9
$CAMERAHEIGHT
 40
0.0
  9
$STEPSPERSEC
 40
24.0
  9
$STEPSIZE
 40
100.0
  9
$3DDWFPREC
 40
2.0
  9
$PSOLWIDTH
 40
0.005
  9
$PSOLHEIGHT
 40
0.08
  9
$LOFTANG1
 40
1.570796326795
  9
$LOFTANG2
 40
1.570796326795
  9
$LOFTMAG1
 40
0.0
  9
$LOFTMAG2
 40
0.0
  9
$LOFTPARAM
 70
7
  9
$LOFTNORMALS
280
1
  9
$LATITUDE
 40
37.795
  9
$LONGITUDE
 40
-122.394
  9
$NORTHDIRECTION
 40
0.0
  9
$TIMEZONE
 70
-8000
  9
$LIGHTGLYPHDISPLAY
280
1
  9
$TILEMODELIGHTSYNCH
280
1
  9
$CMATERIAL
347
20
  9
$SOLIDHIST
280
0
  9
$SHOWHIST
280
1
  9
$DWFFRAME
280
2
  9
$DGNFRAME
280
2
  9
$REALWORLDSCALE
290
1
  9
$INTERFERECOLOR
 62
256
  9
$CSHADOW
280
0
  9
$SHADOWPLANELOCATION
 40
0.0
  0
ENDSEC
  0
SECTION
  2
CLASSES
  0
CLASS
  1
ACDBDICTIONARYWDFLT
  2
AcDbDictionaryWithDefault
  3
ObjectDBX Classes
 90
0
 91
0
280
0
281
0
  0
CLASS
  1
SUN
  2
AcDbSun
  3
SCENEOE
 90
1153
 91
0
280
0
281
0
  0
CLASS
  1
VISUALSTYLE
  2
AcDbVisualStyle
  3
ObjectDBX Classes
 90
4095
 91
0
280
0
281
0
  0
CLASS
  1
MATERIAL
  2
AcDbMaterial
  3
ObjectDBX Classes
 90
1153
 91
0
280
0
281
0
  0
CLASS
  1
SCALE
  2
AcDbScale
  3
ObjectDBX Classes
 90
1153
 91
0
280
0
281
0
  0
CLASS
  1
TABLESTYLE
  2
AcDbTableStyle
  3
ObjectDBX Classes
 90
4095
 91
0
280
0
281
0
  0
CLASS
  1
MLEADERSTYLE
  2
AcDbMLeaderStyle
  3
ACDB_MLEADERSTYLE_CLASS
 90
4095
 91
0
280
0
281
0
  0
CLASS
  1
DICTIONARYVAR
  2
AcDbDictionaryVar
  3
ObjectDBX Classes
 90
0
 91
0
280
0
281
0
  0
CLASS
  1
CELLSTYLEMAP
  2
AcDbCellStyleMap
  3
ObjectDBX Classes
 90
1152
 91
0
280
0
281
0
  0
CLASS
  1
MENTALRAYRENDERSETTINGS
  2
AcDbMentalRayRenderSettings
  3
SCENEOE
 90
1024
 91
0
280
0
281
0
  0
CLASS
  1
ACDBDETAILVIEWSTYLE
  2
AcDbDetailViewStyle
  3
ObjectDBX Classes
 90
1025
 91
0
280
0
281
0
  0
CLASS
  1
ACDBSECTIONVIEWSTYLE
  2
AcDbSectionViewStyle
  3
ObjectDBX Classes
 90
1025
 91
0
280
0
281
0
  0
CLASS
  1
RASTERVARIABLES
  2
AcDbRasterVariables
  3
ISM
 90
0
 91
0
280
0
281
0
  0
CLASS
  1
LAYOUT
  2
AcDbLayout
  3
ObjectDBX Classes
 90
0
 91
0
280
0
281
0
  0
CLASS
  1
ACDBPLACEHOLDER
  2
AcDbPlaceHolder
  3
ObjectDBX Classes
 90
0
 91
0
280
0
281
0
  0
ENDSEC
  0
SECTION
  2
TABLES
  0
TABLE
  2
VPORT
  5
8
330
0
100
AcDbSymbolTable
 70
1
  0
VPORT
  5
23
330
8
100
AcDbSymbolTableRecord
100
AcDbViewportTableRecord
  2
*Active
 70
0
 10
0.0
 20
0.0
 11
1.0
 21
1.0
 12
0.0
 22
0.0
 13
0.0
 23
0.0
 14
0.5
 24
0.5
 15
0.5
 25
0.5
 16
0.0
 26
0.0
 36
1.0
 17
0.0
 27
0.0
 37
0.0
 40
1000.0
 41
1.34
 42
50.0
 43
0.0
 44
0.0
 50
0.0
 51
0.0
 71
0
 72
1000
 73
1
 74
3
 75
0
 76
0
 77
0
 78
0
281
0
 65
0
146
0.0
  0
ENDTAB
  0
TABLE
  2
LTYPE
  5
2
330
0
100
AcDbSymbolTable
 70
3
  0
LTYPE
  5
24
330
2
100
AcDbSymbolTableRecord
100
AcDbLinetypeTableRecord
  2
ByBlock
 70
0
  3

 72
65
 73
0
 40
0.0
  0
LTYPE
  5
25
330
2
100
AcDbSymbolTableRecord
100
AcDbLinetypeTableRecord
  2
ByLayer
 70
0
  3

 72
65
 73
0
 40
0.0
  0
LTYPE
  5
26
330
2
100
AcDbSymbolTableRecord
100
AcDbLinetypeTableRecord
  2
Continuous
 70
0
  3

 72
65
 73
0
 40
0.0
  0
ENDTAB
  0
TABLE
  2
LAYER
  5
1
330
0
100
AcDbSymbolTable
 70
2
  0
LAYER
  5
27
330
1
100
AcDbSymbolTableRecord
100
AcDbLayerTableRecord
  2
0
 70
0
 62
7
  6
Continuous
370
-3
390
13
347
21
  0
LAYER
  5
28
330
1
100
AcDbSymbolTableRecord
100
AcDbLayerTableRecord
  2
Defpoints
 70
0
 62
7
  6
Continuous
290
0
370
-3
390
13
347
21
  0
ENDTAB
  0
TABLE
  2
STYLE
  5
5
330
0
100
AcDbSymbolTable
 70
1
  0
STYLE
  5
29
330
5
100
AcDbSymbolTableRecord
100
AcDbTextStyleTableRecord
  2
Standard
 70
0
 40
0.0
 41
1.0
 50
0.0
 71
0
 42
2.5
  3
txt
  4

  0
ENDTAB
  0
TABLE
  2
VIEW
  5
7
330
0
100
AcDbSymbolTable
 70
0
  0
ENDTAB
  0
TABLE
  2
UCS
  5
6
330
0
100
AcDbSymbolTable
 70
0
  0
ENDTAB
  0
TABLE
  2
APPID
  5
3
330
0
100
AcDbSymbolTable
 70
3
  0
APPID
  5
2A
330
3
100
AcDbSymbolTableRecord
100
AcDbRegAppTableRecord
  2
ACAD
 70
0
  0
APPID
  5
21F
330
3
100
AcDbSymbolTableRecord
100
AcDbRegAppTableRecord
  2
HATCHBACKGROUNDCOLOR
 70
0
  0
APPID
  5
220
330
3
100
AcDbSymbolTableRecord
100
AcDbRegAppTableRecord
  2
EZDXF
 70
0
  0
ENDTAB
  0
TABLE
  2
DIMSTYLE
  5
4
330
0
100
AcDbSymbolTable
 70
1
100
AcDbDimStyleTable
  0
DIMSTYLE
105
2B
330
4
100
AcDbSymbolTableRecord
100
AcDbDimStyleTableRecord
  2
Standard
 70
0
 40
1.0
 41
2.5
 42
0.625
 43
3.75
 44
1.25
 45
0.0
 46
0.0
 47
0.0
 48
0.0
 49
2.5
140
2.5
141
2.5
142
0.0
143
0.03937007874
144
1.0
145
0.0
146
1.0
147
0.625
148
0.0
 69
0
 70
0
 71
0
 72
0
 73
0
 74
0
 75
0
 76
0
 77
1
 78
8
 79
3
170
0
171
3
172
1
173
0
174
0
175
0
176
0
177
0
178
0
179
2
271
2
272
2
273
2
274
3
275
0
276
0
277
2
278
44
279
0
280
0
281
0
282
0
283
0
284
8
285
0
286
0
288
0
289
3
290
0
371
-2
372
-2
  0
ENDTAB
  0
TABLE
  2
BLOCK_RECORD
  5
9
330
0
100
AcDbSymbolTable
 70
2
  0
BLOCK_RECORD
  5
17
330
9
100
AcDbSymbolTableRecord
100
AcDbBlockTableRecord
  2
*Model_Space
340
1A
 70
0
280
1
281
0
  0
BLOCK_RECORD
  5
1B
330
9
100
AcDbSymbolTableRecord
100
AcDbBlockTableRecord
  2
*Paper_Space
340
1E
 70
0
280
1
281
0
  0
ENDTAB
  0
ENDSEC
  0
SECTION
  2
BLOCKS
  0
BLOCK
  5
18
330
17
100
AcDbEntity
  8
0
100
AcDbBlockBegin
  2
*Model_Space
 70
0
 10
0.0
 20
0.0
 30
0.0
  3
*Model_Space
  1

  0
ENDBLK
  5
19
330
17
100
AcDbEntity
  8
0
100
AcDbBlockEnd
  0
BLOCK
  5
1C
330
1B
100
AcDbEntity
  8
0
100
AcDbBlockBegin
  2
*Paper_Space
 70
0
 10
0.0
 20
0.0
 30
0.0
  3
*Paper_Space
  1

  0
ENDBLK
  5
1D
330
1B
100
AcDbEntity
  8
0
100
AcDbBlockEnd
  0
ENDSEC
  0
SECTION
  2
ENTITIES
  0
LINE
  5
2F
330
17
100
AcDbEntity
  8
0
100
AcDbLine
 10
0.2149507523196704
 20
0.5148494502029556
 30
0.0
 11
0.2
 21
0.5166851717616944
 31
0.0
  0
LINE
  5
30
330
17
100
AcDbEntity
  8
0
100
AcDbLine
 10
0.2302182952859047
 20
0.5230499298983687
 30
0.0
 11
0.2
 21
0.5267602700162828
 31
0.0
  0
LINE
  5
31
330
17
100
AcDbEntity
  8
0
100
AcDbLine
 10
0.24548583825213907
 20
0.5312504095937819
 30
0.0
 11
0.2
 21
0.5368353682708713
 31
0.0
  0
LINE
  5
32
330
17
100
AcDbEntity
  8
0
100
AcDbLine
 10
0.2
 20
0.5469104665254598
 30
0.0
 11
0.2607533812183735
 21
0.539450889289195
 31
0.0
  0
LINE
  5
33
330
17
100
AcDbEntity
  8
0
100
AcDbLine
 10
0.2
 20
0.5569855647800482
 30
0.0
 11
0.2760209241846078
 21
0.5476513689846082
 31
0.0
  0
LINE
  5
34
330
17
100
AcDbEntity
  8
0
100
AcDbLine
 10
0.2
 20
0.5670606630346368
 30
0.0
 11
0.2912884671508421
 21
0.5558518486800214
 31
0.0
  0
LINE
  5
35
330
17
100
AcDbEntity
  8
0
100
AcDbLine
 10
0.2
 20
0.5771357612892253
 30
0.0
 11
0.30655601011707645
 21
0.5640523283754345
 31
0.0
  0
LINE
  5
36
330
17
100
AcDbEntity
  8
0
100
AcDbLine
 10
0.2
 20
0.5872108595438138
 30
0.0
 11
0.3172834918443242
 21
0.572810257496549
 31
0.0
  0
LINE
  5
37
330
17
100
AcDbEntity
  8
0
100
AcDbLine
 10
0.2
 20
0.5972859577984022
 30
0.0
 11
0.31503282490082973
 21
0.5831617029035331
 31
0.0
  0
LINE
  5
38
330
17
100
AcDbEntity
  8
0
100
AcDbLine
 10
0.2
 20
0.6073610560529907
 30
0.0
 11
0.31278215795733527
 21
0.5935131483105173
 31
0.0
  0
LINE
  5
39
330
17
100
AcDbEntity
  8
0
100
AcDbLine
 10
0.2
 20
0.6174361543075791
 30
0.0
 11
0.3105314910138408
 21
0.6038645937175013
 31
0.0
  0
LINE
  5
3A
330
17
100
AcDbEntity
  8
0
100
AcDbLine
 10
0.2
 20
0.6275112525621677
 30
0.0
 11
0.2694157937142321
 21
0.6189880648112391
 31
0.0
  0
LINE
  5
3B
330
17
100
AcDbEntity
  8
0
100
AcDbLine
 10
0.2
 20
0.6375863508167562
 30
0.0
 11
0.21797925266151472
 21
0.6353787761733497
 31
0.0
  0
LINE
  5
3C
330
17
100
AcDbEntity
  8
0
100
AcDbLine
 10
0.25304891318840395
 20
0.4158002979372279
 30
0.0
 11
0.22594947524819436
 21
0.4410709326423248
 31
0.0
  0
LINE
  5
3D
330
17
100
AcDbEntity
  8
0
100
AcDbLine
 10
0.26334682285506517
 20
0.4198706164283694
 30
0.0
 11
0.2
 21
0.4789424843996078
 31
0.0
  0
LINE
  5
3E
330
17
100
AcDbEntity
  8
0
100
AcDbLine
 10
0.2736447325217264
 20
0.42394093491951096
 30
0.0
 11
0.2
 21
0.49261575901059385
 31
0.0
  0
LINE
  5
3F
330
17
100
AcDbEntity
  8
0
100
AcDbLine
 10
0.2839426421883875
 20
0.4280112534106525
 30
0.0
 11
0.20736313060036185
 21
0.4994228032555404
 31
0.0
  0
LINE
  5
40
330
17
100
AcDbEntity
  8
0
100
AcDbLine
 10
0.29424055185504866
 20
0.432081571901794
 30
0.0
 11
0.21666699708075537
 21
0.5044200820141487
 31
0.0
  0
LINE
  5
41
330
17
100
AcDbEntity
  8
0
100
AcDbLine
 10
0.30453846152170994
 20
0.4361518903929356
 30
0.0
 11
0.22597086356114915
 21
0.5094173607727571
 31
0.0
  0
LINE
  5
42
330
17
100
AcDbEntity
  8
0
100
AcDbLine
 10
0.3148363711883711
 20
0.4402222088840771
 30
0.0
 11
0.23527473004154278
 21
0.5144146395313655
 31
0.0
  0
LINE
  5
43
330
17
100
AcDbEntity
  8
0
100
AcDbLine
 10
0.32513428085503226
 20
0.4442925273752186
 30
0.0
 11
0.24457859652193648
 21
0.5194119182899738
 31
0.0
  0
LINE
  5
44
330
17
100
AcDbEntity
  8
0
100
AcDbLine
 10
0.33008406440515003
 20
0.4533500541526039
 30
0.0
 11
0.2538824630023302
 21
0.5244091970485822
 31
0.0
  0
LINE
  5
45
330
17
100
AcDbEntity
  8
0
100
AcDbLine
 10
0.3325641770330245
 20
0.46471058632277634
 30
0.0
 11
0.2631863294827238
 21
0.5294064758071906
 31
0.0
  0
LINE
  5
46
330
17
100
AcDbEntity
  8
0
100
AcDbLine
 10
0.33504428966089894
 20
0.4760711184929488
 30
0.0
 11
0.2724901959631173
 21
0.5344037545657988
 31
0.0
  0
LINE
  5
47
330
17
100
AcDbEntity
  8
0
100
AcDbLine
 10
0.3375244022887734
 20
0.4874316506631214
 30
0.0
 11
0.28179406244351113
 21
0.5394010333244073
 31
0.0
  0
LINE
  5
48
330
17
100
AcDbEntity
  8
0
100
AcDbLine
 10
0.34000451491664785
 20
0.4987921828332939
 30
0.0
 11
0.29109792892390485
 21
0.5443983120830157
 31
0.0
  0
LINE
  5
49
330
17
100
AcDbEntity
  8
0
100
AcDbLine
 10
0.34248462754452225
 20
0.5101527150034663
 30
0.0
 11
0.30040179540429834
 21
0.5493955908416239
 31
0.0
  0
LINE
  5
4A
330
17
100
AcDbEntity
  8
0
100
AcDbLine
 10
0.3449647401723967
 20
0.5215132471736389
 30
0.0
 11
0.30970566188469206
 21
0.5543928696002324
 31
0.0
  0
LINE
  5
4B
330
17
100
AcDbEntity
  8
0
100
AcDbLine
 10
0.3474448528002711
 20
0.5328737793438113
 30
0.0
 11
0.31900952836508567
 21
0.5593901483588406
 31
0.0
  0
LINE
  5
4C
330
17
100
AcDbEntity
  8
0
100
AcDbLine
 10
0.4739721255088688
 20
0.5810787759628526
 30
0.0
 11
0.47861991077295213
 21
0.5902005681494745
 31
0.0
  0
LINE
  5
4D
330
17
100
AcDbEntity
  8
0
100
AcDbLine
 10
0.45698929110727676
 20
0.5697749793988864
 30
0.0
 11
0.47797957592985546
 21
0.6109707329052249
 31
0.0
  0
LINE
  5
4E
330
17
100
AcDbEntity
  8
0
100
AcDbLine
 10
0.44000645670568467
 20
0.5584711828349201
 30
0.0
 11
0.47733924108675885
 21
0.6317408976609747
 31
0.0
  0
LINE
  5
4F
330
17
100
AcDbEntity
  8
0
100
AcDbLine
 10
0.4231715711146134
 20
0.5474577521607591
 30
0.0
 11
0.47669890624366223
 21
0.6525110624167251
 31
0.0
  0
LINE
  5
50
330
17
100
AcDbEntity
  8
0
100
AcDbLine
 10
0.4099087218844902
 20
0.5434548375746412
 30
0.0
 11
0.4760585714005656
 21
0.6732812271724756
 31
0.0
  0
LINE
  5
51
330
17
100
AcDbEntity
  8
0
100
AcDbLine
 10
0.3966458726543671
 20
0.5394519229885233
 30
0.0
 11
0.4696490158669265
 21
0.6827286587923894
 31
0.0
  0
LINE
  5
52
330
17
100
AcDbEntity
  8
0
100
AcDbLine
 10
0.3847464537266228
 20
0.5381248910373782
 30
0.0
 11
0.45746166846173125
 21
0.6808365353865649
 31
0.0
  0
LINE
  5
53
330
17
100
AcDbEntity
  8
0
100
AcDbLine
 10
0.37439074404465233
 20
0.5398275590694341
 30
0.0
 11
0.44527432105653597
 21
0.6789444119807404
 31
0.0
  0
LINE
  5
54
330
17
100
AcDbEntity
  8
0
100
AcDbLine
 10
0.36403503436268186
 20
0.5415302271014901
 30
0.0
 11
0.43308697365134063
 21
0.6770522885749158
 31
0.0
  0
LINE
  5
55
330
17
100
AcDbEntity
  8
0
100
AcDbLine
 10
0.3543398558419622
 20
0.5445292605298304
 30
0.0
 11
0.42089962624614546
 21
0.6751601651690914
 31
0.0
  0
LINE
  5
56
330
17
100
AcDbEntity
  8
0
100
AcDbLine
 10
0.3468363518836824
 20
0.5518296974790637
 30
0.0
 11
0.4087122788409502
 21
0.6732680417632669
 31
0.0
  0
LINE
  5
57
330
17
100
AcDbEntity
  8
0
100
AcDbLine
 10
0.33933284792540264
 20
0.5591301344282971
 30
0.0
 11
0.396524931435755
 21
0.6713759183574424
 31
0.0
  0
LINE
  5
58
330
17
100
AcDbEntity
  8
0
100
AcDbLine
 10
0.3318293439671228
 20
0.5664305713775304
 30
0.0
 11
0.3843375840305597
 21
0.6694837949516179
 31
0.0
  0
LINE
  5
59
330
17
100
AcDbEntity
  8
0
100
AcDbLine
 10
0.32642232288274575
 20
0.5778455876396967
 30
0.0
 11
0.3721502366253644
 21
0.6675916715457934
 31
0.0
  0
LINE
  5
5A
330
17
100
AcDbEntity
  8
0
100
AcDbLine
 10
0.32306553177366093
 20
0.5932844067900732
 30
0.0
 11
0.35817432876337485
 21
0.6621893005977335
 31
0.0
  0
LINE
  5
5B
330
17
100
AcDbEntity
  8
0
100
AcDbLine
 10
0.3197087406645761
 20
0.6087232259404496
 30
0.0
 11
0.3399993235408608
 21
0.648545737056269
 31
0.0
  0
LINE
  5
5C
330
17
100
AcDbEntity
  8
0
100
AcDbLine
 10
0.2
 20
0.6528540903580425
 30
0.0
 11
0.31350569683713825
 21
0.6224403305541996
 31
0.0
  0
LINE
  5
5D
330
17
100
AcDbEntity
  8
0
100
AcDbLine
 10
0.2
 20
0.6632068521621435
 30
0.0
 11
0.3168909751073175
 21
0.6318860097796513
 31
0.0
  0
LINE
  5
5E
330
17
100
AcDbEntity
  8
0
100
AcDbLine
 10
0.2
 20
0.6735596139662442
 30
0.0
 11
0.3202762533774968
 21
0.6413316890051028
 31
0.0
  0
LINE
  5
5F
330
17
100
AcDbEntity
  8
0
100
AcDbLine
 10
0.2
 20
0.6839123757703451
 30
0.0
 11
0.3181544521933378
 21
0.6522529857229985
 31
0.0
  0
LINE
  5
60
330
17
100
AcDbEntity
  8
0
100
AcDbLine
 10
0.2
 20
0.6942651375744459
 30
0.0
 11
0.3129088179934165
 21
0.6640113109747573
 31
0.0
  0
LINE
  5
61
330
17
100
AcDbEntity
  8
0
100
AcDbLine
 10
0.2
 20
0.7046178993785467
 30
0.0
 11
0.3076631837934952
 21
0.6757696362265161
 31
0.0
  0
LINE
  5
62
330
17
100
AcDbEntity
  8
0
100
AcDbLine
 10
0.2
 20
0.7149706611826476
 30
0.0
 11
0.3024175495935739
 21
0.687527961478275
 31
0.0
  0
LINE
  5
63
330
17
100
AcDbEntity
  8
0
100
AcDbLine
 10
0.2
 20
0.7253234229867485
 30
0.0
 11
0.29717191539365256
 21
0.6992862867300338
 31
0.0
  0
LINE
  5
64
330
17
100
AcDbEntity
  8
0
100
AcDbLine
 10
0.2
 20
0.7356761847908493
 30
0.0
 11
0.2919262811937312
 21
0.7110446119817927
 31
0.0
  0
LINE
  5
65
330
17
100
AcDbEntity
  8
0
100
AcDbLine
 10
0.2
 20
0.7460289465949501
 30
0.0
 11
0.2866806469938099
 21
0.7228029372335515
 31
0.0
  0
LINE
  5
66
330
17
100
AcDbEntity
  8
0
100
AcDbLine
 10
0.2
 20
0.756381708399051
 30
0.0
 11
0.2814350127938886
 21
0.7345612624853103
 31
0.0
  0
LINE
  5
67
330
17
100
AcDbEntity
  8
0
100
AcDbLine
 10
0.2
 20
0.7667344702031517
 30
0.0
 11
0.27618937859396736
 21
0.746319587737069
 31
0.0
  0
LINE
  5
68
330
17
100
AcDbEntity
  8
0
100
AcDbLine
 10
0.2
 20
0.7770872320072525
 30
0.0
 11
0.270943744394046
 21
0.7580779129888279
 31
0.0
  0
LINE
  5
69
330
17
100
AcDbEntity
  8
0
100
AcDbLine
 10
0.2
 20
0.7874399938113533
 30
0.0
 11
0.2656981101941247
 21
0.7698362382405867
 31
0.0
  0
LINE
  5
6A
330
17
100
AcDbEntity
  8
0
100
AcDbLine
 10
0.2035342419207267
 20
0.7968457583469393
 30
0.0
 11
0.26045247599420335
 21
0.7815945634923456
 31
0.0
  0
LINE
  5
6B
330
17
100
AcDbEntity
  8
0
100
AcDbLine
 10
0.23039948486371645
 20
0.8
 30
0.0
 11
0.25520684179428205
 21
0.7933528887441044
 31
0.0
  0
LINE
  5
6C
330
17
100
AcDbEntity
  8
0
100
AcDbLine
 10
0.7094524761971482
 20
0.6559433616382818
 30
0.0
 11
0.7172714758617559
 21
0.6472594827573233
 31
0.0
  0
LINE
  5
6D
330
17
100
AcDbEntity
  8
0
100
AcDbLine
 10
0.7026994908297995
 20
0.6783880771983637
 30
0.0
 11
0.7275150037142568
 21
0.6508276580269803
 31
0.0
  0
LINE
  5
6E
330
17
100
AcDbEntity
  8
0
100
AcDbLine
 10
0.6959465054624507
 20
0.7008327927584458
 30
0.0
 11
0.736798818964181
 21
0.6554617021236988
 31
0.0
  0
LINE
  5
6F
330
17
100
AcDbEntity
  8
0
100
AcDbLine
 10
0.6891935200951019
 20
0.723277508318528
 30
0.0
 11
0.7460826342141047
 21
0.6600957462204171
 31
0.0
  0
LINE
  5
70
330
17
100
AcDbEntity
  8
0
100
AcDbLine
 10
0.6824405347277532
 20
0.7457222238786099
 30
0.0
 11
0.7553664494640289
 21
0.6647297903171356
 31
0.0
  0
LINE
  5
71
330
17
100
AcDbEntity
  8
0
100
AcDbLine
 10
0.681189863137201
 20
0.7620560008976647
 30
0.0
 11
0.7646502647139527
 21
0.669363834413854
 31
0.0
  0
LINE
  5
72
330
17
100
AcDbEntity
  8
0
100
AcDbLine
 10
0.6892406542204802
 20
0.7680594570649455
 30
0.0
 11
0.7739340799638768
 21
0.6739978785105725
 31
0.0
  0
LINE
  5
73
330
17
100
AcDbEntity
  8
0
100
AcDbLine
 10
0.7050866024098984
 20
0.765405514195089
 30
0.0
 11
0.7832178952138006
 21
0.6786319226072909
 31
0.0
  0
LINE
  5
74
330
17
100
AcDbEntity
  8
0
100
AcDbLine
 10
0.7209325505993164
 20
0.7627515713252323
 30
0.0
 11
0.7925017104637246
 21
0.6832659667040093
 31
0.0
  0
LINE
  5
75
330
17
100
AcDbEntity
  8
0
100
AcDbLine
 10
0.7367784987887346
 20
0.7600976284553757
 30
0.0
 11
0.8
 21
0.6898830380038553
 31
0.0
  0
LINE
  5
76
330
17
100
AcDbEntity
  8
0
100
AcDbLine
 10
0.7526244469781526
 20
0.7574436855855191
 30
0.0
 11
0.8
 21
0.7048278035025013
 31
0.0
  0
LINE
  5
77
330
17
100
AcDbEntity
  8
0
100
AcDbLine
 10
0.7684703951675704
 20
0.7547897427156626
 30
0.0
 11
0.8
 21
0.7197725690011473
 31
0.0
  0
LINE
  5
78
330
17
100
AcDbEntity
  8
0
100
AcDbLine
 10
0.7843163433569886
 20
0.7521357998458059
 30
0.0
 11
0.8
 21
0.7347173344997935
 31
0.0
  0
LINE
  5
79
330
17
100
AcDbEntity
  8
0
100
AcDbLine
 10
0.7988171205430551
 20
0.6752417680082062
 30
0.0
 11
0.8
 21
0.6752624152459294
 31
0.0
  0
LINE
  5
7A
330
17
100
AcDbEntity
  8
0
100
AcDbLine
 10
0.7780540595913085
 20
0.6648778241507458
 30
0.0
 11
0.8
 21
0.6652608919654903
 31
0.0
  0
LINE
  5
7B
330
17
100
AcDbEntity
  8
0
100
AcDbLine
 10
0.7572909986395621
 20
0.6545138802932855
 30
0.0
 11
0.8
 21
0.6552593686850513
 31
0.0
  0
LINE
  5
7C
330
17
100
AcDbEntity
  8
0
100
AcDbLine
 10
0.7365279376878153
 20
0.6441499364358252
 30
0.0
 11
0.8
 21
0.6452578454046122
 31
0.0
  0
LINE
  5
7D
330
17
100
AcDbEntity
  8
0
100
AcDbLine
 10
0.7284609766419082
 20
0.6340076038265564
 30
0.0
 11
0.8
 21
0.6352563221241732
 31
0.0
  0
LINE
  5
7E
330
17
100
AcDbEntity
  8
0
100
AcDbLine
 10
0.733079921750182
 20
0.6240867045328821
 30
0.0
 11
0.8
 21
0.625254798843734
 31
0.0
  0
LINE
  5
7F
330
17
100
AcDbEntity
  8
0
100
AcDbLine
 10
0.7396751720476288
 20
0.6142003017746028
 30
0.0
 11
0.8
 21
0.615253275563295
 31
0.0
  0
LINE
  5
80
330
17
100
AcDbEntity
  8
0
100
AcDbLine
 10
0.7753188955695903
 20
0.6048209420025229
 30
0.0
 11
0.8
 21
0.6052517522828559
 31
0.0
  0
LINE
  5
81
330
17
100
AcDbEntity
  8
0
100
AcDbLine
 10
0.7632061582450754
 20
0.25145671477870885
 30
0.0
 11
0.7311895674552794
 21
0.26571141940411114
 31
0.0
  0
LINE
  5
82
330
17
100
AcDbEntity
  8
0
100
AcDbLine
 10
0.769261308522466
 20
0.23781442539630016
 30
0.0
 11
0.73111638920025
 21
0.25479763767733055
 31
0.0
  0
LINE
  5
83
330
17
100
AcDbEntity
  8
0
100
AcDbLine
 10
0.7753164587998564
 20
0.22417213601389155
 30
0.0
 11
0.7310432109452206
 21
0.24388385595054995
 31
0.0
  0
LINE
  5
84
330
17
100
AcDbEntity
  8
0
100
AcDbLine
 10
0.7813716090772469
 20
0.21052984663148283
 30
0.0
 11
0.7309700326901912
 21
0.23297007422376945
 31
0.0
  0
LINE
  5
85
330
17
100
AcDbEntity
  8
0
100
AcDbLine
 10
0.7804360984793867
 20
0.2
 30
0.0
 11
0.7308968544351618
 21
0.22205629249698888
 31
0.0
  0
LINE
  5
86
330
17
100
AcDbEntity
  8
0
100
AcDbLine
 10
0.7558501651236441
 20
0.2
 30
0.0
 11
0.7308236761801324
 21
0.21114251077020835
 31
0.0
  0
LINE
  5
87
330
17
100
AcDbEntity
  8
0
100
AcDbLine
 10
0.7312642317679018
 20
0.2
 30
0.0
 11
0.730750497925103
 21
0.20022872904342778
 31
0.0
  0
LINE
  5
88
330
17
100
AcDbEntity
  8
0
100
AcDbLine
 10
0.7124416936251433
 20
0.27445681944519046
 30
0.0
 11
0.7211613021645914
 21
0.2615294681638944
 31
0.0
  0
LINE
  5
89
330
17
100
AcDbEntity
  8
0
100
AcDbLine
 10
0.6969230270972728
 20
0.2795812722230623
 30
0.0
 11
0.7210425752350323
 21
0.24382257157585607
 31
0.0
  0
LINE
  5
8A
330
17
100
AcDbEntity
  8
0
100
AcDbLine
 10
0.6881637308626798
 20
0.2746845464323966
 30
0.0
 11
0.7209238483054733
 21
0.22611567498781776
 31
0.0
  0
LINE
  5
8B
330
17
100
AcDbEntity
  8
0
100
AcDbLine
 10
0.6822164735503126
 20
0.26561880149370054
 30
0.0
 11
0.7208051213759141
 21
0.20840877839977956
 31
0.0
  0
LINE
  5
8C
330
17
100
AcDbEntity
  8
0
100
AcDbLine
 10
0.6762692162379451
 20
0.2565530565550042
 30
0.0
 11
0.7144147345377668
 21
0.2
 31
0.0
  0
LINE
  5
8D
330
17
100
AcDbEntity
  8
0
100
AcDbLine
 10
0.6703219589255778
 20
0.24748731161630802
 30
0.0
 11
0.7023525550527279
 21
0.2
 31
0.0
  0
LINE
  5
8E
330
17
100
AcDbEntity
  8
0
100
AcDbLine
 10
0.6902903755676888
 20
0.2
 30
0.0
 11
0.6643747016132104
 21
0.23842156667761177
 31
0.0
  0
LINE
  5
8F
330
17
100
AcDbEntity
  8
0
100
AcDbLine
 10
0.6782281960826497
 20
0.2
 30
0.0
 11
0.6584274443008431
 21
0.22935582173891556
 31
0.0
  0
LINE
  5
90
330
17
100
AcDbEntity
  8
0
100
AcDbLine
 10
0.6661660165976107
 20
0.2
 30
0.0
 11
0.6524801869884758
 21
0.22029007680021945
 31
0.0
  0
LINE
  5
91
330
17
100
AcDbEntity
  8
0
100
AcDbLine
 10
0.6541038371125718
 20
0.2
 30
0.0
 11
0.6465329296761085
 21
0.21122433186152328
 31
0.0
  0
LINE
  5
92
330
17
100
AcDbEntity
  8
0
100
AcDbLine
 10
0.6420416576275327
 20
0.2
 30
0.0
 11
0.6405856723637412
 21
0.20215858692282707
 31
0.0
  0
LINE
  5
93
330
17
100
AcDbEntity
  8
0
100
AcDbLine
 10
0.7609648832083574
 20
0.5124239852897785
 30
0.0
 11
0.76372584007411
 21
0.5067631848214915
 31
0.0
  0
LINE
  5
94
330
17
100
AcDbEntity
  8
0
100
AcDbLine
 10
0.761548712028415
 20
0.5340386791442384
 30
0.0
 11
0.7714141421565575
 21
0.5138115498536757
 31
0.0
  0
LINE
  5
95
330
17
100
AcDbEntity
  8
0
100
AcDbLine
 10
0.7674715204867795
 20
0.5447068425361642
 30
0.0
 11
0.7791024442390051
 21
0.5208599148858601
 31
0.0
  0
LINE
  5
96
330
17
100
AcDbEntity
  8
0
100
AcDbLine
 10
0.7755583749585192
 20
0.5509380540735119
 30
0.0
 11
0.7867907463214525
 21
0.5279082799180443
 31
0.0
  0
LINE
  5
97
330
17
100
AcDbEntity
  8
0
100
AcDbLine
 10
0.783645229430259
 20
0.5571692656108598
 30
0.0
 11
0.7944790484039002
 21
0.5349566449502288
 31
0.0
  0
LINE
  5
98
330
17
100
AcDbEntity
  8
0
100
AcDbLine
 10
0.7917320839019988
 20
0.5634004771482075
 30
0.0
 11
0.8
 21
0.5464487370106202
 31
0.0
  0
LINE
  5
99
330
17
100
AcDbEntity
  8
0
100
AcDbLine
 10
0.7998189383737386
 20
0.5696316886855552
 30
0.0
 11
0.8
 21
0.5692604573376688
 31
0.0
  0
LINE
  5
9A
330
17
100
AcDbEntity
  8
0
100
AcDbLine
 10
0.7597630824269417
 20
0.48867100379675915
 30
0.0
 11
0.7584521033317988
 21
0.46365603248758414
 31
0.0
  0
LINE
  5
9B
330
17
100
AcDbEntity
  8
0
100
AcDbLine
 10
0.7703313610668937
 20
0.49925254698670696
 30
0.0
 11
0.7683655496064862
 21
0.46174262980836855
 31
0.0
  0
LINE
  5
9C
330
17
100
AcDbEntity
  8
0
100
AcDbLine
 10
0.7808504821077861
 20
0.5088961073097603
 30
0.0
 11
0.7782789958811733
 21
0.45982922712915303
 31
0.0
  0
LINE
  5
9D
330
17
100
AcDbEntity
  8
0
100
AcDbLine
 10
0.7913696031486785
 20
0.5185396676328139
 30
0.0
 11
0.7881924421558606
 21
0.45791582444993745
 31
0.0
  0
LINE
  5
9E
330
17
100
AcDbEntity
  8
0
100
AcDbLine
 10
0.8
 20
0.4921442235292436
 30
0.0
 11
0.798105888430548
 21
0.4560024217707219
 31
0.0
  0
LINE
  5
9F
330
17
100
AcDbEntity
  8
0
100
AcDbLine
 10
0.3276253084465216
 20
0.6555685409926619
 30
0.0
 11
0.33336670837946575
 21
0.656070848399563
 31
0.0
  0
LINE
  5
A0
330
17
100
AcDbEntity
  8
0
100
AcDbLine
 10
0.32331528132310533
 20
0.6652296608553071
 30
0.0
 11
0.3485029729029702
 21
0.6674332983289327
 31
0.0
  0
LINE
  5
A1
330
17
100
AcDbEntity
  8
0
100
AcDbLine
 10
0.319005254199689
 20
0.6748907807179524
 30
0.0
 11
0.35855482776057584
 21
0.6783509200518146
 31
0.0
  0
LINE
  5
A2
330
17
100
AcDbEntity
  8
0
100
AcDbLine
 10
0.31469522707627273
 20
0.6845519005805978
 30
0.0
 11
0.3615985010807774
 21
0.6886554053382421
 31
0.0
  0
LINE
  5
A3
330
17
100
AcDbEntity
  8
0
100
AcDbLine
 10
0.3103851999528564
 20
0.6942130204432431
 30
0.0
 11
0.364642174400979
 21
0.6989598906246695
 31
0.0
  0
LINE
  5
A4
330
17
100
AcDbEntity
  8
0
100
AcDbLine
 10
0.30607517282944013
 20
0.7038741403058884
 30
0.0
 11
0.36768584772118057
 21
0.7092643759110969
 31
0.0
  0
LINE
  5
A5
330
17
100
AcDbEntity
  8
0
100
AcDbLine
 10
0.30176514570602386
 20
0.7135352601685336
 30
0.0
 11
0.3707295210413822
 21
0.7195688611975244
 31
0.0
  0
LINE
  5
A6
330
17
100
AcDbEntity
  8
0
100
AcDbLine
 10
0.29745511858260754
 20
0.7231963800311789
 30
0.0
 11
0.37377319436158374
 21
0.7298733464839517
 31
0.0
  0
LINE
  5
A7
330
17
100
AcDbEntity
  8
0
100
AcDbLine
 10
0.29314509145919126
 20
0.7328574998938242
 30
0.0
 11
0.37681686768178535
 21
0.7401778317703792
 31
0.0
  0
LINE
  5
A8
330
17
100
AcDbEntity
  8
0
100
AcDbLine
 10
0.28883506433577494
 20
0.7425186197564695
 30
0.0
 11
0.37324825410204815
 21
0.749903816913081
 31
0.0
  0
LINE
  5
A9
330
17
100
AcDbEntity
  8
0
100
AcDbLine
 10
0.28452503721235867
 20
0.7521797396191149
 30
0.0
 11
0.36834638170841627
 21
0.759513157024021
 31
0.0
  0
LINE
  5
AA
330
17
100
AcDbEntity
  8
0
100
AcDbLine
 10
0.28021501008894234
 20
0.7618408594817602
 30
0.0
 11
0.3634445093147844
 21
0.7691224971349611
 31
0.0
  0
LINE
  5
AB
330
17
100
AcDbEntity
  8
0
100
AcDbLine
 10
0.27590498296552607
 20
0.7715019793444055
 30
0.0
 11
0.35854263692115257
 21
0.778731837245901
 31
0.0
  0
LINE
  5
AC
330
17
100
AcDbEntity
  8
0
100
AcDbLine
 10
0.2715949558421098
 20
0.7811630992070507
 30
0.0
 11
0.3536407645275207
 21
0.788341177356841
 31
0.0
  0
LINE
  5
AD
330
17
100
AcDbEntity
  8
0
100
AcDbLine
 10
0.26728492871869347
 20
0.790824219069696
 30
0.0
 11
0.3487388921338888
 21
0.797950517467781
 31
0.0
  0
LINE
  5
AE
330
17
100
AcDbEntity
  8
0
100
AcDbLine
 10
0.5359527495101507
 20
0.8
 30
0.0
 11
0.5424263512183525
 21
0.7943725838891558
 31
0.0
  0
LINE
  5
AF
330
17
100
AcDbEntity
  8
0
100
AcDbLine
 10
0.5207102186430926
 20
0.8
 30
0.0
 11
0.5261532612270805
 21
0.7952684352683704
 31
0.0
  0
LINE
  5
B0
330
17
100
AcDbEntity
  8
0
100
AcDbLine
 10
0.5054676877760346
 20
0.8
 30
0.0
 11
0.5098801712358084
 21
0.7961642866475852
 31
0.0
  0
LINE
  5
B1
330
17
100
AcDbEntity
  8
0
100
AcDbLine
 10
0.4902251569089763
 20
0.8
 30
0.0
 11
0.49360708124453634
 21
0.7970601380267999
 31
0.0
  0
LINE
  5
B2
330
17
100
AcDbEntity
  8
0
100
AcDbLine
 10
0.20377749428699088
 20
0.2
 30
0.0
 11
0.2
 21
0.2151507020628035
 31
0.0
  0
LINE
  5
B3
330
17
100
AcDbEntity
  8
0
100
AcDbLine
 10
0.21408363058048982
 20
0.2
 30
0.0
 11
0.2
 21
0.25648635700719097
 31
0.0
  0
LINE
  5
B4
330
17
100
AcDbEntity
  8
0
100
AcDbLine
 10
0.2243897668739888
 20
0.2
 30
0.0
 11
0.2
 21
0.2978220119515783
 31
0.0
  0
LINE
  5
B5
330
17
100
AcDbEntity
  8
0
100
AcDbLine
 10
0.23469590316748778
 20
0.2
 30
0.0
 11
0.21565508484538726
 21
0.2763685510852009
 31
0.0
  0
LINE
  5
B6
330
17
100
AcDbEntity
  8
0
100
AcDbLine
 10
0.24500203946098684
 20
0.2
 30
0.0
 11
0.23225837434792784
 21
0.25111204905882306
 31
0.0
  0
LINE
  5
B7
330
17
100
AcDbEntity
  8
0
100
AcDbLine
 10
0.2553081757544858
 20
0.2
 30
0.0
 11
0.2488616638504682
 21
0.22585554703244548
 31
0.0
  0
LINE
  5
B8
330
17
100
AcDbEntity
  8
0
100
AcDbLine
 10
0.2656143120479848
 20
0.2
 30
0.0
 11
0.2654649533530088
 21
0.20059904500606762
 31
0.0
  0
LINE
  5
B9
330
17
100
AcDbEntity
  8
0
100
AcDbLine
 10
0.35604624469889024
 20
0.5253883995603974
 30
0.0
 11
0.3775316939878432
 21
0.5291768639626833
 31
0.0
  0
LINE
  5
BA
330
17
100
AcDbEntity
  8
0
100
AcDbLine
 10
0.3537407230300524
 20
0.5148276077667158
 30
0.0
 11
0.3908483396139284
 21
0.5213706817602379
 31
0.0
  0
LINE
  5
BB
330
17
100
AcDbEntity
  8
0
100
AcDbLine
 10
0.3514352013612145
 20
0.5042668159730342
 30
0.0
 11
0.39660154480903803
 21
0.5122308609428305
 31
0.0
  0
LINE
  5
BC
330
17
100
AcDbEntity
  8
0
100
AcDbLine
 10
0.3491296796923766
 20
0.4937060241793526
 30
0.0
 11
0.40235475000414767
 21
0.5030910401254229
 31
0.0
  0
LINE
  5
BD
330
17
100
AcDbEntity
  8
0
100
AcDbLine
 10
0.3468241580235388
 20
0.4831452323856711
 30
0.0
 11
0.4081079551992573
 21
0.4939512193080155
 31
0.0
  0
LINE
  5
BE
330
17
100
AcDbEntity
  8
0
100
AcDbLine
 10
0.34451863635470087
 20
0.4725844405919895
 30
0.0
 11
0.413861160394367
 21
0.48481139849060795
 31
0.0
  0
LINE
  5
BF
330
17
100
AcDbEntity
  8
0
100
AcDbLine
 10
0.4196143655894766
 20
0.47567157767320045
 30
0.0
 11
0.342213114685863
 21
0.46202364879830793
 31
0.0
  0
LINE
  5
C0
330
17
100
AcDbEntity
  8
0
100
AcDbLine
 10
0.42536757078458626
 20
0.46653175685579296
 30
0.0
 11
0.33990759301702517
 21
0.4514628570046264
 31
0.0
  0
LINE
  5
C1
330
17
100
AcDbEntity
  8
0
100
AcDbLine
 10
0.4311207759796959
 20
0.45739193603838546
 30
0.0
 11
0.3382784743067918
 21
0.44102133330237786
 31
0.0
  0
LINE
  5
C2
330
17
100
AcDbEntity
  8
0
100
AcDbLine
 10
0.4368739811748055
 20
0.44825211522097796
 30
0.0
 11
0.34150640311483177
 21
0.43143623812418397
 31
0.0
  0
LINE
  5
C3
330
17
100
AcDbEntity
  8
0
100
AcDbLine
 10
0.4426271863699152
 20
0.43911229440357036
 30
0.0
 11
0.3447343319228718
 21
0.42185114294599
 31
0.0
  0
LINE
  5
C4
330
17
100
AcDbEntity
  8
0
100
AcDbLine
 10
0.44838039156502485
 20
0.42997247358616286
 30
0.0
 11
0.34796226073091174
 21
0.41226604776779613
 31
0.0
  0
LINE
  5
C5
330
17
100
AcDbEntity
  8
0
100
AcDbLine
 10
0.45413359676013454
 20
0.42083265276875537
 30
0.0
 11
0.3511901895389517
 21
0.4026809525896023
 31
0.0
  0
LINE
  5
C6
330
17
100
AcDbEntity
  8
0
100
AcDbLine
 10
0.4598868019552442
 20
0.41169283195134787
 30
0.0
 11
0.35441811834699166
 21
0.3930958574114084
 31
0.0
  0
LINE
  5
C7
330
17
100
AcDbEntity
  8
0
100
AcDbLine
 10
0.4656400071503538
 20
0.4025530111339404
 30
0.0
 11
0.3576460471550316
 21
0.3835107622332145
 31
0.0
  0
LINE
  5
C8
330
17
100
AcDbEntity
  8
0
100
AcDbLine
 10
0.47139321234546344
 20
0.3934131903165329
 30
0.0
 11
0.3608739759630716
 21
0.3739256670550206
 31
0.0
  0
LINE
  5
C9
330
17
100
AcDbEntity
  8
0
100
AcDbLine
 10
0.47714641754057313
 20
0.38427336949912533
 30
0.0
 11
0.36759371492353504
 21
0.36495627221821075
 31
0.0
  0
LINE
  5
CA
330
17
100
AcDbEntity
  8
0
100
AcDbLine
 10
0.23775671006536514
 20
0.3215400989221081
 30
0.0
 11
0.2358376515273225
 21
0.32628993548055374
 31
0.0
  0
LINE
  5
CB
330
17
100
AcDbEntity
  8
0
100
AcDbLine
 10
0.2489405363824655
 20
0.32055382905930213
 30
0.0
 11
0.23924436479538458
 21
0.3445526958829546
 31
0.0
  0
LINE
  5
CC
330
17
100
AcDbEntity
  8
0
100
AcDbLine
 10
0.26012436269956585
 20
0.31956755919649615
 30
0.0
 11
0.24265107806344668
 21
0.3628154562853556
 31
0.0
  0
LINE
  5
CD
330
17
100
AcDbEntity
  8
0
100
AcDbLine
 10
0.27130818901666603
 20
0.3185812893336902
 30
0.0
 11
0.2460577913315087
 21
0.3810782166877563
 31
0.0
  0
LINE
  5
CE
330
17
100
AcDbEntity
  8
0
100
AcDbLine
 10
0.28130503200339657
 20
0.32053290630710674
 30
0.0
 11
0.24946450459957079
 21
0.39934097709015715
 31
0.0
  0
LINE
  5
CF
330
17
100
AcDbEntity
  8
0
100
AcDbLine
 10
0.2899342707699519
 20
0.32586946250655563
 30
0.0
 11
0.2572701611225672
 21
0.4067159708733459
 31
0.0
  0
LINE
  5
D0
330
17
100
AcDbEntity
  8
0
100
AcDbLine
 10
0.2985635095365071
 20
0.33120601870600447
 30
0.0
 11
0.2665703269379562
 21
0.41039192435462496
 31
0.0
  0
LINE
  5
D1
330
17
100
AcDbEntity
  8
0
100
AcDbLine
 10
0.3071927483030625
 20
0.33654257490545336
 30
0.0
 11
0.2758704927533453
 21
0.414067877835904
 31
0.0
  0
LINE
  5
D2
330
17
100
AcDbEntity
  8
0
100
AcDbLine
 10
0.3158219870696178
 20
0.3418791311049022
 30
0.0
 11
0.2851706585687343
 21
0.41774383131718307
 31
0.0
  0
LINE
  5
D3
330
17
100
AcDbEntity
  8
0
100
AcDbLine
 10
0.3244512258361731
 20
0.34721568730435104
 30
0.0
 11
0.29447082438412336
 21
0.4214197847984621
 31
0.0
  0
LINE
  5
D4
330
17
100
AcDbEntity
  8
0
100
AcDbLine
 10
0.3330804646027284
 20
0.35255224350379993
 30
0.0
 11
0.3037709901995124
 21
0.4250957382797412
 31
0.0
  0
LINE
  5
D5
330
17
100
AcDbEntity
  8
0
100
AcDbLine
 10
0.3417097033692837
 20
0.35788879970324877
 30
0.0
 11
0.3130711560149015
 21
0.4287716917610202
 31
0.0
  0
LINE
  5
D6
330
17
100
AcDbEntity
  8
0
100
AcDbLine
 10
0.350338942135839
 20
0.36322535590269767
 30
0.0
 11
0.3223713218302905
 21
0.43244764524229923
 31
0.0
  0
LINE
  5
D7
330
17
100
AcDbEntity
  8
0
100
AcDbLine
 10
0.20242181672231926
 20
0.45479966036791086
 30
0.0
 11
0.2
 21
0.45475738739977856
 31
0.0
  0
LINE
  5
D8
330
17
100
AcDbEntity
  8
0
100
AcDbLine
 10
0.21018523225772517
 20
0.4449336480097071
 30
0.0
 11
0.2
 21
0.4447558641193395
 31
0.0
  0
LINE
  5
D9
330
17
100
AcDbEntity
  8
0
100
AcDbLine
 10
0.2179486477931311
 20
0.4350676356515032
 30
0.0
 11
0.2
 21
0.4347543408389004
 31
0.0
  0
LINE
  5
DA
330
17
100
AcDbEntity
  8
0
100
AcDbLine
 10
0.22571206332853705
 20
0.42520162329329936
 30
0.0
 11
0.2
 21
0.42475281755846134
 31
0.0
  0
LINE
  5
DB
330
17
100
AcDbEntity
  8
0
100
AcDbLine
 10
0.23347547886394301
 20
0.4153356109350955
 30
0.0
 11
0.2
 21
0.41475129427802226
 31
0.0
  0
LINE
  5
DC
330
17
100
AcDbEntity
  8
0
100
AcDbLine
 10
0.24043260908314953
 20
0.40545552481434677
 30
0.0
 11
0.2
 21
0.4047497709975832
 31
0.0
  0
LINE
  5
DD
330
17
100
AcDbEntity
  8
0
100
AcDbLine
 10
0.23856084245043552
 20
0.3954213297258032
 30
0.0
 11
0.2
 21
0.39474824771714406
 31
0.0
  0
LINE
  5
DE
330
17
100
AcDbEntity
  8
0
100
AcDbLine
 10
0.2366890758177215
 20
0.3853871346372596
 30
0.0
 11
0.2
 21
0.384746724436705
 31
0.0
  0
LINE
  5
DF
330
17
100
AcDbEntity
  8
0
100
AcDbLine
 10
0.23481730918500746
 20
0.375352939548716
 30
0.0
 11
0.2
 21
0.3747452011562659
 31
0.0
  0
LINE
  5
E0
330
17
100
AcDbEntity
  8
0
100
AcDbLine
 10
0.23294554255229344
 20
0.3653187444601725
 30
0.0
 11
0.2
 21
0.36474367787582684
 31
0.0
  0
LINE
  5
E1
330
17
100
AcDbEntity
  8
0
100
AcDbLine
 10
0.23107377591957942
 20
0.3552845493716289
 30
0.0
 11
0.2
 21
0.35474215459538777
 31
0.0
  0
LINE
  5
E2
330
17
100
AcDbEntity
  8
0
100
AcDbLine
 10
0.2292020092868654
 20
0.3452503542830853
 30
0.0
 11
0.2
 21
0.34474063131494864
 31
0.0
  0
LINE
  5
E3
330
17
100
AcDbEntity
  8
0
100
AcDbLine
 10
0.2273302426541514
 20
0.3352161591945418
 30
0.0
 11
0.2
 21
0.3347391080345097
 31
0.0
  0
LINE
  5
E4
330
17
100
AcDbEntity
  8
0
100
AcDbLine
 10
0.22545847602143737
 20
0.32518196410599814
 30
0.0
 11
0.2
 21
0.3247375847540705
 31
0.0
  0
LINE
  5
E5
330
17
100
AcDbEntity
  8
0
100
AcDbLine
 10
0.21283251651350388
 20
0.31496005388256715
 30
0.0
 11
0.2
 21
0.3147360614736315
 31
0.0
  0
LINE
  5
E6
330
17
100
AcDbEntity
  8
0
100
AcDbLine
 10
0.8
 20
0.20407293833499468
 30
0.0
 11
0.7985975748640354
 21
0.2
 31
0.0
  0
LINE
  5
E7
330
17
100
AcDbEntity
  8
0
100
AcDbLine
 10
0.8
 20
0.2347884732025674
 30
0.0
 11
0.7919377277996341
 21
0.21137393457948142
 31
0.0
  0
LINE
  5
E8
330
17
100
AcDbEntity
  8
0
100
AcDbLine
 10
0.7964150223095388
 20
0.25509247686527703
 30
0.0
 11
0.7859818922955273
 21
0.224792467190379
 31
0.0
  0
LINE
  5
E9
330
17
100
AcDbEntity
  8
0
100
AcDbLine
 10
0.7863462231612628
 20
0.25656609572129374
 30
0.0
 11
0.7800260567914205
 21
0.23821099980127655
 31
0.0
  0
LINE
  5
EA
330
17
100
AcDbEntity
  8
0
100
AcDbLine
 10
0.776277424012987
 20
0.25803971457731045
 30
0.0
 11
0.7740702212873137
 21
0.2516295324121739
 31
0.0
  0
LINE
  5
EB
330
17
100
AcDbEntity
  8
0
100
AcDbLine
 10
0.6965461317324694
 20
0.3158597760220395
 30
0.0
 11
0.6974513431340413
 21
0.2899379130520392
 31
0.0
  0
LINE
  5
EC
330
17
100
AcDbEntity
  8
0
100
AcDbLine
 10
0.7051238712127833
 20
0.35676253914734385
 30
0.0
 11
0.7075741675334078
 21
0.2865952330917424
 31
0.0
  0
LINE
  5
ED
330
17
100
AcDbEntity
  8
0
100
AcDbLine
 10
0.7137016106930971
 20
0.3976653022726477
 30
0.0
 11
0.7176969919327741
 21
0.28325255313144554
 31
0.0
  0
LINE
  5
EE
330
17
100
AcDbEntity
  8
0
100
AcDbLine
 10
0.722279350173411
 20
0.43856806539795196
 30
0.0
 11
0.7278189183117642
 21
0.27993558911010114
 31
0.0
  0
LINE
  5
EF
330
17
100
AcDbEntity
  8
0
100
AcDbLine
 10
0.7319312953976436
 20
0.4487096007624411
 30
0.0
 11
0.7379033615298831
 21
0.2776920023773049
 31
0.0
  0
LINE
  5
F0
330
17
100
AcDbEntity
  8
0
100
AcDbLine
 10
0.7418073058168576
 20
0.4524347484515509
 30
0.0
 11
0.7479878047480021
 21
0.27544841564450867
 31
0.0
  0
LINE
  5
F1
330
17
100
AcDbEntity
  8
0
100
AcDbLine
 10
0.7517319034209533
 20
0.4547685412080893
 30
0.0
 11
0.758072247966121
 21
0.2732048289117124
 31
0.0
  0
LINE
  5
F2
330
17
100
AcDbEntity
  8
0
100
AcDbLine
 10
0.7618058984706157
 20
0.4528241508735549
 30
0.0
 11
0.7677817679529432
 21
0.28169763879198145
 31
0.0
  0
LINE
  5
F3
330
17
100
AcDbEntity
  8
0
100
AcDbLine
 10
0.7718798935202783
 20
0.45087976053902046
 30
0.0
 11
0.777465457840022
 21
0.29093012595082446
 31
0.0
  0
LINE
  5
F4
330
17
100
AcDbEntity
  8
0
100
AcDbLine
 10
0.7819538885699407
 20
0.44893537020448604
 30
0.0
 11
0.7871491477271008
 21
0.3001626131096674
 31
0.0
  0
LINE
  5
F5
330
17
100
AcDbEntity
  8
0
100
AcDbLine
 10
0.7920278836196032
 20
0.4469909798699516
 30
0.0
 11
0.7968328376141793
 21
0.30939510026851025
 31
0.0
  0
LINE
  5
F6
330
17
100
AcDbEntity
  8
0
100
AcDbLine
 10
0.7723558552430161
 20
0.2722420061733288
 30
0.0
 11
0.776008218749383
 21
0.26818564555445223
 31
0.0
  0
LINE
  5
F7
330
17
100
AcDbEntity
  8
0
100
AcDbLine
 10
0.779596471570091
 20
0.2791452525640488
 30
0.0
 11
0.7915069469358478
 21
0.2659173295652746
 31
0.0
  0
LINE
  5
F8
330
17
100
AcDbEntity
  8
0
100
AcDbLine
 10
0.786837087897166
 20
0.2860484989547688
 30
0.0
 11
0.8
 21
0.27142960404176464
 31
0.0
  0
LINE
  5
F9
330
17
100
AcDbEntity
  8
0
100
AcDbLine
 10
0.794077704224241
 20
0.2929517453454888
 30
0.0
 11
0.8
 21
0.28637436954041073
 31
0.0
  0
LINE
  5
FA
330
17
100
AcDbEntity
  8
0
100
AcDbLine
 10
0.6520365556121073
 20
0.5591611235427411
 30
0.0
 11
0.6558236895061231
 21
0.537683219941151
 31
0.0
  0
LINE
  5
FB
330
17
100
AcDbEntity
  8
0
100
AcDbLine
 10
0.6582089030412295
 20
0.581743706615032
 30
0.0
 11
0.6649583581422674
 21
0.5434656446081897
 31
0.0
  0
LINE
  5
FC
330
17
100
AcDbEntity
  8
0
100
AcDbLine
 10
0.6643812504703518
 20
0.604326289687323
 30
0.0
 11
0.6740930267784119
 21
0.5492480692752284
 31
0.0
  0
LINE
  5
FD
330
17
100
AcDbEntity
  8
0
100
AcDbLine
 10
0.6715180094878169
 20
0.6214394228520168
 30
0.0
 11
0.6832276954145562
 21
0.5550304939422671
 31
0.0
  0
LINE
  5
FE
330
17
100
AcDbEntity
  8
0
100
AcDbLine
 10
0.6807840086679081
 20
0.6264770349928094
 30
0.0
 11
0.6923623640507005
 21
0.5608129186093057
 31
0.0
  0
LINE
  5
FF
330
17
100
AcDbEntity
  8
0
100
AcDbLine
 10
0.6901290760793621
 20
0.6310662289105644
 30
0.0
 11
0.7014970326868449
 21
0.5665953432763444
 31
0.0
  0
LINE
  5
100
330
17
100
AcDbEntity
  8
0
100
AcDbLine
 10
0.6994741434908163
 20
0.6356554228283195
 30
0.0
 11
0.7106317013229893
 21
0.5723777679433831
 31
0.0
  0
LINE
  5
101
330
17
100
AcDbEntity
  8
0
100
AcDbLine
 10
0.7089635676288654
 20
0.6394259290669961
 30
0.0
 11
0.7197663699591337
 21
0.5781601926104218
 31
0.0
  0
LINE
  5
102
330
17
100
AcDbEntity
  8
0
100
AcDbLine
 10
0.7216843721281694
 20
0.6248703666106183
 30
0.0
 11
0.728901038595278
 21
0.5839426172774604
 31
0.0
  0
LINE
  5
103
330
17
100
AcDbEntity
  8
0
100
AcDbLine
 10
0.7992323461257499
 20
0.5881878853500078
 30
0.0
 11
0.8
 21
0.5838343038892136
 31
0.0
  0
LINE
  5
104
330
17
100
AcDbEntity
  8
0
100
AcDbLine
 10
0.78858400742215
 20
0.5909899102174291
 30
0.0
 11
0.7912836886996368
 21
0.5756792568696557
 31
0.0
  0
LINE
  5
105
330
17
100
AcDbEntity
  8
0
100
AcDbLine
 10
0.7779356687185501
 20
0.5937919350848503
 30
0.0
 11
0.7823440217445771
 21
0.5687909227138871
 31
0.0
  0
LINE
  5
106
330
17
100
AcDbEntity
  8
0
100
AcDbLine
 10
0.7672873300149503
 20
0.5965939599522716
 30
0.0
 11
0.7734043547895173
 21
0.5619025885581186
 31
0.0
  0
LINE
  5
107
330
17
100
AcDbEntity
  8
0
100
AcDbLine
 10
0.7566389913113504
 20
0.5993959848196929
 30
0.0
 11
0.7644646878344575
 21
0.55501425440235
 31
0.0
  0
LINE
  5
108
330
17
100
AcDbEntity
  8
0
100
AcDbLine
 10
0.7459906526077505
 20
0.6021980096871142
 30
0.0
 11
0.7537735982682857
 21
0.5580587314594488
 31
0.0
  0
LINE
  5
109
330
17
100
AcDbEntity
  8
0
100
AcDbLine
 10
0.6635993054603764
 20
0.7890064732950002
 30
0.0
 11
0.6838759581299625
 21
0.7839509359805474
 31
0.0
  0
LINE
  5
10A
330
17
100
AcDbEntity
  8
0
100
AcDbLine
 10
0.6608423331040336
 20
0.8
 30
0.0
 11
0.6890688625916361
 21
0.7929623357756619
 31
0.0
  0
LINE
  5
10B
330
17
100
AcDbEntity
  8
0
100
AcDbLine
 10
0.6514488777684672
 20
0.7843847823037986
 30
0.0
 11
0.6538771907209325
 21
0.7865712451070193
 31
0.0
  0
LINE
  5
10C
330
17
100
AcDbEntity
  8
0
100
AcDbLine
 10
0.6339243208105131
 20
0.7820619276403927
 30
0.0
 11
0.6505102188080772
 21
0.7969959372757109
 31
0.0
  0
LINE
  5
10D
330
17
100
AcDbEntity
  8
0
100
AcDbLine
 10
0.616399763852559
 20
0.7797390729769867
 30
0.0
 11
0.6389018029663587
 21
0.8
 31
0.0
  0
LINE
  5
10E
330
17
100
AcDbEntity
  8
0
100
AcDbLine
 10
0.5988752068946049
 20
0.7774162183135809
 30
0.0
 11
0.6239570374677125
 21
0.8
 31
0.0
  0
LINE
  5
10F
330
17
100
AcDbEntity
  8
0
100
AcDbLine
 10
0.5874885971565094
 20
0.780619996150622
 30
0.0
 11
0.6090122719690665
 21
0.8
 31
0.0
  0
LINE
  5
110
330
17
100
AcDbEntity
  8
0
100
AcDbLine
 10
0.5767854274242292
 20
0.7844391461329346
 30
0.0
 11
0.5940675064704203
 21
0.8
 31
0.0
  0
LINE
  5
111
330
17
100
AcDbEntity
  8
0
100
AcDbLine
 10
0.5660822576919491
 20
0.7882582961152471
 30
0.0
 11
0.5791227409717743
 21
0.8
 31
0.0
  0
LINE
  5
112
330
17
100
AcDbEntity
  8
0
100
AcDbLine
 10
0.5576844791739287
 20
0.7941532296705677
 30
0.0
 11
0.5641779754731283
 21
0.8
 31
0.0
  0
LINE
  5
113
330
17
100
AcDbEntity
  8
0
100
AcDbLine
 10
0.6962874242830496
 20
0.7854605179492719
 30
0.0
 11
0.6939776480132165
 21
0.7774053708238149
 31
0.0
  0
LINE
  5
114
330
17
100
AcDbEntity
  8
0
100
AcDbLine
 10
0.7108595480310349
 20
0.8
 30
0.0
 11
0.703903930040119
 21
0.77574287735264
 31
0.0
  0
LINE
  5
115
330
17
100
AcDbEntity
  8
0
100
AcDbLine
 10
0.721262542389651
 20
0.8
 30
0.0
 11
0.7138302120670215
 21
0.774080383881465
 31
0.0
  0
LINE
  5
116
330
17
100
AcDbEntity
  8
0
100
AcDbLine
 10
0.731665536748267
 20
0.8
 30
0.0
 11
0.7237564940939238
 21
0.7724178904102902
 31
0.0
  0
LINE
  5
117
330
17
100
AcDbEntity
  8
0
100
AcDbLine
 10
0.7420685311068831
 20
0.8
 30
0.0
 11
0.7336827761208264
 21
0.7707553969391152
 31
0.0
  0
LINE
  5
118
330
17
100
AcDbEntity
  8
0
100
AcDbLine
 10
0.7524715254654991
 20
0.8
 30
0.0
 11
0.7436090581477289
 21
0.7690929034679403
 31
0.0
  0
LINE
  5
119
330
17
100
AcDbEntity
  8
0
100
AcDbLine
 10
0.762874519824115
 20
0.8
 30
0.0
 11
0.7535353401746313
 21
0.7674304099967654
 31
0.0
  0
LINE
  5
11A
330
17
100
AcDbEntity
  8
0
100
AcDbLine
 10
0.7732775141827312
 20
0.8
 30
0.0
 11
0.7634616222015339
 21
0.7657679165255905
 31
0.0
  0
LINE
  5
11B
330
17
100
AcDbEntity
  8
0
100
AcDbLine
 10
0.7836805085413471
 20
0.8
 30
0.0
 11
0.7733879042284362
 21
0.7641054230544156
 31
0.0
  0
LINE
  5
11C
330
17
100
AcDbEntity
  8
0
100
AcDbLine
 10
0.7940835028999632
 20
0.8
 30
0.0
 11
0.7833141862553388
 21
0.7624429295832407
 31
0.0
  0
LINE
  5
11D
330
17
100
AcDbEntity
  8
0
100
AcDbLine
 10
0.8
 20
0.7843537246581789
 30
0.0
 11
0.7932404682822412
 21
0.7607804361120658
 31
0.0
  0
LINE
  5
11E
330
17
100
AcDbEntity
  8
0
100
AcDbLine
 10
0.6924883156283008
 20
0.677618180969099
 30
0.0
 11
0.6959117140470737
 21
0.645046720740884
 31
0.0
  0
LINE
  5
11F
330
17
100
AcDbEntity
  8
0
100
AcDbLine
 10
0.677034836155843
 20
0.728980494420854
 30
0.0
 11
0.6863501494271838
 21
0.6403512089520618
 31
0.0
  0
LINE
  5
120
330
17
100
AcDbEntity
  8
0
100
AcDbLine
 10
0.6664979838275518
 20
0.733564225337485
 30
0.0
 11
0.6767885848072938
 21
0.6356556971632394
 31
0.0
  0
LINE
  5
121
330
17
100
AcDbEntity
  8
0
100
AcDbLine
 10
0.6575471302154285
 20
0.7230581864445642
 30
0.0
 11
0.6671246469812647
 21
0.6319342013679713
 31
0.0
  0
LINE
  5
122
330
17
100
AcDbEntity
  8
0
100
AcDbLine
 10
0.6485962766033052
 20
0.7125521475516434
 30
0.0
 11
0.6564289465219211
 21
0.6380292712963067
 31
0.0
  0
LINE
  5
123
330
17
100
AcDbEntity
  8
0
100
AcDbLine
 10
0.639645422991182
 20
0.7020461086587227
 30
0.0
 11
0.6457332460625773
 21
0.6441243412246422
 31
0.0
  0
LINE
  5
124
330
17
100
AcDbEntity
  8
0
100
AcDbLine
 10
0.6306945693790587
 20
0.691540069765802
 30
0.0
 11
0.6350375456032337
 21
0.6502194111529778
 31
0.0
  0
LINE
  5
125
330
17
100
AcDbEntity
  8
0
100
AcDbLine
 10
0.5862568874101113
 20
0.7224762682737215
 30
0.0
 11
0.6087727668873489
 21
0.7686406624624381
 31
0.0
  0
LINE
  5
126
330
17
100
AcDbEntity
  8
0
100
AcDbLine
 10
0.5922922326870401
 20
0.7120388395532176
 30
0.0
 11
0.6206677779248012
 21
0.7702173289611065
 31
0.0
  0
LINE
  5
127
330
17
100
AcDbEntity
  8
0
100
AcDbLine
 10
0.5983862513533067
 20
0.7017217091082714
 30
0.0
 11
0.6325627889622538
 21
0.7717939954597749
 31
0.0
  0
LINE
  5
128
330
17
100
AcDbEntity
  8
0
100
AcDbLine
 10
0.6444577999997064
 20
0.7733706619584432
 30
0.0
 11
0.6079123977282411
 21
0.6984414832891971
 31
0.0
  0
LINE
  5
129
330
17
100
AcDbEntity
  8
0
100
AcDbLine
 10
0.6563528110371588
 20
0.7749473284571116
 30
0.0
 11
0.6176319307616093
 21
0.6955577588788203
 31
0.0
  0
LINE
  5
12A
330
17
100
AcDbEntity
  8
0
100
AcDbLine
 10
0.6660901744608188
 20
0.772100161764447
 30
0.0
 11
0.639172501746711
 21
0.7169107539923376
 31
0.0
  0
LINE
  5
12B
330
17
100
AcDbEntity
  8
0
100
AcDbLine
 10
0.67095508498938
 20
0.7592629861830466
 30
0.0
 11
0.6651967400821417
 21
0.7474566294985975
 31
0.0
  0
LINE
  5
12C
330
17
100
AcDbEntity
  8
0
100
AcDbLine
 10
0.4929232195628172
 20
0.7350616907702094
 30
0.0
 11
0.4951810835114746
 21
0.7260058930944163
 31
0.0
  0
LINE
  5
12D
330
17
100
AcDbEntity
  8
0
100
AcDbLine
 10
0.4930970191304891
 20
0.7757002737223219
 30
0.0
 11
0.5061698814738875
 21
0.7232678866886805
 31
0.0
  0
LINE
  5
12E
330
17
100
AcDbEntity
  8
0
100
AcDbLine
 10
0.5006715639089095
 20
0.786656088889207
 30
0.0
 11
0.5171586794363006
 21
0.7205298802829446
 31
0.0
  0
LINE
  5
12F
330
17
100
AcDbEntity
  8
0
100
AcDbLine
 10
0.5111211286171853
 20
0.7860808289378933
 30
0.0
 11
0.5281474773987135
 21
0.7177918738772089
 31
0.0
  0
LINE
  5
130
330
17
100
AcDbEntity
  8
0
100
AcDbLine
 10
0.5215706933254609
 20
0.7855055689865796
 30
0.0
 11
0.5391362753611264
 21
0.715053867471473
 31
0.0
  0
LINE
  5
131
330
17
100
AcDbEntity
  8
0
100
AcDbLine
 10
0.5320202580337366
 20
0.784930309035266
 30
0.0
 11
0.5501250733235393
 21
0.7123158610657372
 31
0.0
  0
LINE
  5
132
330
17
100
AcDbEntity
  8
0
100
AcDbLine
 10
0.5424698227420124
 20
0.7843550490839523
 30
0.0
 11
0.5596262961260411
 21
0.7155441927485745
 31
0.0
  0
LINE
  5
133
330
17
100
AcDbEntity
  8
0
100
AcDbLine
 10
0.5533140860393266
 20
0.7821967395572288
 30
0.0
 11
0.5686645203216172
 21
0.7206295104163231
 31
0.0
  0
LINE
  5
134
330
17
100
AcDbEntity
  8
0
100
AcDbLine
 10
0.5646266597680821
 20
0.7781601394811053
 30
0.0
 11
0.5772996543588217
 21
0.7273315344057643
 31
0.0
  0
LINE
  5
135
330
17
100
AcDbEntity
  8
0
100
AcDbLine
 10
0.5759392334968377
 20
0.7741235394049817
 30
0.0
 11
0.5830425988018548
 21
0.7456334972756791
 31
0.0
  0
LINE
  5
136
330
17
100
AcDbEntity
  8
0
100
AcDbLine
 10
0.5872518072255932
 20
0.7700869393288581
 30
0.0
 11
0.5887855432448879
 21
0.7639354601455938
 31
0.0
  0
LINE
  5
137
330
17
100
AcDbEntity
  8
0
100
AcDbLine
 10
0.46298644978144915
 20
0.7879853751856516
 30
0.0
 11
0.4727157011209372
 21
0.8
 31
0.0
  0
LINE
  5
138
330
17
100
AcDbEntity
  8
0
100
AcDbLine
 10
0.4414199886224245
 20
0.7772431709145056
 30
0.0
 11
0.4598481054620055
 21
0.8
 31
0.0
  0
LINE
  5
139
330
17
100
AcDbEntity
  8
0
100
AcDbLine
 10
0.4198535274633989
 20
0.7665009666433591
 30
0.0
 11
0.4469805098030738
 21
0.8
 31
0.0
  0
LINE
  5
13A
330
17
100
AcDbEntity
  8
0
100
AcDbLine
 10
0.39828706630437427
 20
0.7557587623722132
 30
0.0
 11
0.43411291414414216
 21
0.8
 31
0.0
  0
LINE
  5
13B
330
17
100
AcDbEntity
  8
0
100
AcDbLine
 10
0.3830071288897657
 20
0.7527797683975372
 30
0.0
 11
0.42124531848521046
 21
0.8
 31
0.0
  0
LINE
  5
13C
330
17
100
AcDbEntity
  8
0
100
AcDbLine
 10
0.37803405400444523
 20
0.7625286896530763
 30
0.0
 11
0.4083777228262789
 21
0.8
 31
0.0
  0
LINE
  5
13D
330
17
100
AcDbEntity
  8
0
100
AcDbLine
 10
0.3730609791191246
 20
0.7722776109086158
 30
0.0
 11
0.39551012716734707
 21
0.8
 31
0.0
  0
LINE
  5
13E
330
17
100
AcDbEntity
  8
0
100
AcDbLine
 10
0.36808790423380416
 20
0.7820265321641551
 30
0.0
 11
0.38264253150841543
 21
0.8
 31
0.0
  0
LINE
  5
13F
330
17
100
AcDbEntity
  8
0
100
AcDbLine
 10
0.36311482934848366
 20
0.7917754534196942
 30
0.0
 11
0.3697749358494839
 21
0.8
 31
0.0
  0
LINE
  5
140
330
17
100
AcDbEntity
  8
0
100
AcDbLine
 10
0.38237312974024956
 20
0.7236873796398923
 30
0.0
 11
0.4065116759021162
 21
0.7486835759213382
 31
0.0
  0
LINE
  5
141
330
17
100
AcDbEntity
  8
0
100
AcDbLine
 10
0.3762473889154154
 20
0.7029484239250948
 30
0.0
 11
0.4332974802870117
 21
0.7620255229449044
 31
0.0
  0
LINE
  5
142
330
17
100
AcDbEntity
  8
0
100
AcDbLine
 10
0.3701216480905813
 20
0.6822094682102973
 30
0.0
 11
0.4600832846719068
 21
0.7753674699684705
 31
0.0
  0
LINE
  5
143
330
17
100
AcDbEntity
  8
0
100
AcDbLine
 10
0.38100756436238503
 20
0.6790865991068789
 30
0.0
 11
0.48313603158977636
 21
0.7848437228218091
 31
0.0
  0
LINE
  5
144
330
17
100
AcDbEntity
  8
0
100
AcDbLine
 10
0.3973610097211291
 20
0.6816255221145188
 30
0.0
 11
0.4830741920171455
 21
0.7703841206735008
 31
0.0
  0
LINE
  5
145
330
17
100
AcDbEntity
  8
0
100
AcDbLine
 10
0.41371445507987326
 20
0.6841644451221588
 30
0.0
 11
0.4830123524445146
 21
0.7559245185251925
 31
0.0
  0
LINE
  5
146
330
17
100
AcDbEntity
  8
0
100
AcDbLine
 10
0.4300679004386173
 20
0.6867033681297988
 30
0.0
 11
0.4829505128718838
 21
0.7414649163768842
 31
0.0
  0
LINE
  5
147
330
17
100
AcDbEntity
  8
0
100
AcDbLine
 10
0.44642134579736165
 20
0.6892422911374388
 30
0.0
 11
0.4828886732992529
 21
0.7270053142285758
 31
0.0
  0
LINE
  5
148
330
17
100
AcDbEntity
  8
0
100
AcDbLine
 10
0.4627747911561057
 20
0.6917812141450789
 30
0.0
 11
0.4760666490838224
 21
0.7055453359558268
 31
0.0
  0
LINE
  5
149
330
17
100
AcDbEntity
  8
0
100
AcDbLine
 10
0.24866349550376354
 20
0.24436131418226537
 30
0.0
 11
0.21726032513117496
 21
0.30599350626167576
 31
0.0
  0
LINE
  5
14A
330
17
100
AcDbEntity
  8
0
100
AcDbLine
 10
0.2824899764289895
 20
0.2
 30
0.0
 11
0.226257723564711
 21
0.31036201021965515
 31
0.0
  0
LINE
  5
14B
330
17
100
AcDbEntity
  8
0
100
AcDbLine
 10
0.29371323880533307
 20
0.2
 30
0.0
 11
0.23686021130876017
 21
0.3115803490345471
 31
0.0
  0
LINE
  5
14C
330
17
100
AcDbEntity
  8
0
100
AcDbLine
 10
0.3049365011816767
 20
0.2
 30
0.0
 11
0.2486115014747335
 21
0.3105440361474213
 31
0.0
  0
LINE
  5
14D
330
17
100
AcDbEntity
  8
0
100
AcDbLine
 10
0.31615976355802045
 20
0.2
 30
0.0
 11
0.26036279164070686
 21
0.3095077232602955
 31
0.0
  0
LINE
  5
14E
330
17
100
AcDbEntity
  8
0
100
AcDbLine
 10
0.3273830259343639
 20
0.2
 30
0.0
 11
0.27211408180667995
 21
0.3084714103731697
 31
0.0
  0
LINE
  5
14F
330
17
100
AcDbEntity
  8
0
100
AcDbLine
 10
0.33568365043893295
 20
0.2057359997909322
 30
0.0
 11
0.3220289854266991
 21
0.23253478879309586
 31
0.0
  0
LINE
  5
150
330
17
100
AcDbEntity
  8
0
100
AcDbLine
 10
0.6842014776212799
 20
0.28687557868371627
 30
0.0
 11
0.6839188589076725
 21
0.2871212553833139
 31
0.0
  0
LINE
  5
151
330
17
100
AcDbEntity
  8
0
100
AcDbLine
 10
0.6786659301992569
 20
0.27843742671074545
 30
0.0
 11
0.6626149784297196
 21
0.29239030621333223
 31
0.0
  0
LINE
  5
152
330
17
100
AcDbEntity
  8
0
100
AcDbLine
 10
0.673130382777234
 20
0.26999927473777474
 30
0.0
 11
0.6413110979517669
 21
0.2976593570433505
 31
0.0
  0
LINE
  5
153
330
17
100
AcDbEntity
  8
0
100
AcDbLine
 10
0.667594835355211
 20
0.2615611227648039
 30
0.0
 11
0.6200072174738139
 21
0.3029284078733689
 31
0.0
  0
LINE
  5
154
330
17
100
AcDbEntity
  8
0
100
AcDbLine
 10
0.6620592879331881
 20
0.2531229707918332
 30
0.0
 11
0.5987033369958612
 21
0.30819745870338716
 31
0.0
  0
LINE
  5
155
330
17
100
AcDbEntity
  8
0
100
AcDbLine
 10
0.6565237405111651
 20
0.24468481881886237
 30
0.0
 11
0.5773994565179084
 21
0.31346650953340544
 31
0.0
  0
LINE
  5
156
330
17
100
AcDbEntity
  8
0
100
AcDbLine
 10
0.6509881930891422
 20
0.23624666684589157
 30
0.0
 11
0.5560955760399553
 21
0.3187355603634238
 31
0.0
  0
LINE
  5
157
330
17
100
AcDbEntity
  8
0
100
AcDbLine
 10
0.6454526456671194
 20
0.22780851487292086
 30
0.0
 11
0.5347916955620027
 21
0.3240046111934421
 31
0.0
  0
LINE
  5
158
330
17
100
AcDbEntity
  8
0
100
AcDbLine
 10
0.6399170982450963
 20
0.21937036289995016
 30
0.0
 11
0.515783933727763
 21
0.327277676538028
 31
0.0
  0
LINE
  5
159
330
17
100
AcDbEntity
  8
0
100
AcDbLine
 10
0.6343815508230735
 20
0.2109322109269794
 30
0.0
 11
0.5122621979317338
 21
0.31708894482612077
 31
0.0
  0
LINE
  5
15A
330
17
100
AcDbEntity
  8
0
100
AcDbLine
 10
0.6288460034010505
 20
0.2024940589540086
 30
0.0
 11
0.5087404621357046
 21
0.3069002131142134
 31
0.0
  0
LINE
  5
15B
330
17
100
AcDbEntity
  8
0
100
AcDbLine
 10
0.6164725591604304
 20
0.2
 30
0.0
 11
0.5226728623176479
 21
0.2815388324766135
 31
0.0
  0
LINE
  5
15C
330
17
100
AcDbEntity
  8
0
100
AcDbLine
 10
0.4054447367275906
 20
0.2844027851891971
 30
0.0
 11
0.39280824557885907
 21
0.2935837334135138
 31
0.0
  0
LINE
  5
15D
330
17
100
AcDbEntity
  8
0
100
AcDbLine
 10
0.42927689151571413
 20
0.27944839097661667
 30
0.0
 11
0.38909873614819723
 21
0.3086395295479245
 31
0.0
  0
LINE
  5
15E
330
17
100
AcDbEntity
  8
0
100
AcDbLine
 10
0.45310904630383786
 20
0.2744939967640362
 30
0.0
 11
0.38538922671753534
 21
0.3236953256823353
 31
0.0
  0
LINE
  5
15F
330
17
100
AcDbEntity
  8
0
100
AcDbLine
 10
0.47517448272797996
 20
0.2708231985778963
 30
0.0
 11
0.3816797172868735
 21
0.338751121816746
 31
0.0
  0
LINE
  5
160
330
17
100
AcDbEntity
  8
0
100
AcDbLine
 10
0.480957663924479
 20
0.27898215126647674
 30
0.0
 11
0.37797020785621166
 21
0.35380691795115665
 31
0.0
  0
LINE
  5
161
330
17
100
AcDbEntity
  8
0
100
AcDbLine
 10
0.48674084512097787
 20
0.28714110395505704
 30
0.0
 11
0.39111671179094204
 21
0.35661610352298323
 31
0.0
  0
LINE
  5
162
330
17
100
AcDbEntity
  8
0
100
AcDbLine
 10
0.492524026317477
 20
0.2953000566436376
 30
0.0
 11
0.40446772966130157
 21
0.3592767010230052
 31
0.0
  0
LINE
  5
163
330
17
100
AcDbEntity
  8
0
100
AcDbLine
 10
0.4972387989987915
 20
0.30423525355578257
 30
0.0
 11
0.41781874753166137
 21
0.36193729852302725
 31
0.0
  0
LINE
  5
164
330
17
100
AcDbEntity
  8
0
100
AcDbLine
 10
0.5006536892081538
 20
0.31411487036520963
 30
0.0
 11
0.4311697654020212
 21
0.36459789602304926
 31
0.0
  0
LINE
  5
165
330
17
100
AcDbEntity
  8
0
100
AcDbLine
 10
0.5040685794175161
 20
0.32399448717463664
 30
0.0
 11
0.4445207832723807
 21
0.3672584935230712
 31
0.0
  0
LINE
  5
166
330
17
100
AcDbEntity
  8
0
100
AcDbLine
 10
0.5074834696268785
 20
0.3338741039840638
 30
0.0
 11
0.4578718011427405
 21
0.3699190910230933
 31
0.0
  0
LINE
  5
167
330
17
100
AcDbEntity
  8
0
100
AcDbLine
 10
0.5013686846232835
 20
0.35067743511378274
 30
0.0
 11
0.4712228190131002
 21
0.3725796885231153
 31
0.0
  0
LINE
  5
168
330
17
100
AcDbEntity
  8
0
100
AcDbLine
 10
0.4946720946696574
 20
0.36790347228270354
 30
0.0
 11
0.48457383688345995
 21
0.3752402860231373
 31
0.0
  0
LINE
  5
169
330
17
100
AcDbEntity
  8
0
100
AcDbLine
 10
0.6763691793654342
 20
0.3070679174268053
 30
0.0
 11
0.6139164084451045
 21
0.31473615348142764
 31
0.0
  0
LINE
  5
16A
330
17
100
AcDbEntity
  8
0
100
AcDbLine
 10
0.6668821661912956
 20
0.3183078744282604
 30
0.0
 11
0.5330202925222423
 21
0.33474404580835526
 31
0.0
  0
LINE
  5
16B
330
17
100
AcDbEntity
  8
0
100
AcDbLine
 10
0.6573951530171569
 20
0.32954783142971567
 30
0.0
 11
0.5134405486719976
 21
0.3472232343141874
 31
0.0
  0
LINE
  5
16C
330
17
100
AcDbEntity
  8
0
100
AcDbLine
 10
0.6479081398430183
 20
0.34078778843117075
 30
0.0
 11
0.509327550184845
 21
0.3578033452820152
 31
0.0
  0
LINE
  5
16D
330
17
100
AcDbEntity
  8
0
100
AcDbLine
 10
0.6384211266688796
 20
0.35202774543262594
 30
0.0
 11
0.5052145516976925
 21
0.368383456249843
 31
0.0
  0
LINE
  5
16E
330
17
100
AcDbEntity
  8
0
100
AcDbLine
 10
0.628934113494741
 20
0.3632677024340811
 30
0.0
 11
0.505104503560825
 21
0.3784720667165949
 31
0.0
  0
LINE
  5
16F
330
17
100
AcDbEntity
  8
0
100
AcDbLine
 10
0.6194471003206024
 20
0.3745076594355363
 30
0.0
 11
0.5131078371347905
 21
0.3875644791725446
 31
0.0
  0
LINE
  5
170
330
17
100
AcDbEntity
  8
0
100
AcDbLine
 10
0.6099600871464638
 20
0.38574761643699146
 30
0.0
 11
0.5211111707087557
 21
0.39665689162849427
 31
0.0
  0
LINE
  5
171
330
17
100
AcDbEntity
  8
0
100
AcDbLine
 10
0.6004730739723251
 20
0.3969875734384466
 30
0.0
 11
0.529114504282721
 21
0.405749304084444
 31
0.0
  0
LINE
  5
172
330
17
100
AcDbEntity
  8
0
100
AcDbLine
 10
0.5909860607981865
 20
0.4082275304399018
 30
0.0
 11
0.5371178378566863
 21
0.41484171654039365
 31
0.0
  0
LINE
  5
173
330
17
100
AcDbEntity
  8
0
100
AcDbLine
 10
0.5814990476240479
 20
0.4194674874413569
 30
0.0
 11
0.5451211714306516
 21
0.4239341289963433
 31
0.0
  0
LINE
  5
174
330
17
100
AcDbEntity
  8
0
100
AcDbLine
 10
0.5720120344499092
 20
0.43070744444281217
 30
0.0
 11
0.553124505004617
 21
0.433026541452293
 31
0.0
  0
LINE
  5
175
330
17
100
AcDbEntity
  8
0
100
AcDbLine
 10
0.5625250212757706
 20
0.44194740144426725
 30
0.0
 11
0.5611278385785822
 21
0.44211895390824263
 31
0.0
  0
LINE
  5
176
330
17
100
AcDbEntity
  8
0
100
AcDbLine
 10
0.39976171380610787
 20
0.5259822613653578
 30
0.0
 11
0.4170066584067227
 21
0.5351515610579843
 31
0.0
  0
LINE
  5
177
330
17
100
AcDbEntity
  8
0
100
AcDbLine
 10
0.40510312353923433
 20
0.5174966387919391
 30
0.0
 11
0.43306350670697225
 21
0.5323634382350941
 31
0.0
  0
LINE
  5
178
330
17
100
AcDbEntity
  8
0
100
AcDbLine
 10
0.41044453327236075
 20
0.5090110162185204
 30
0.0
 11
0.44262288558377244
 21
0.526120549637824
 31
0.0
  0
LINE
  5
179
330
17
100
AcDbEntity
  8
0
100
AcDbLine
 10
0.41578594300548716
 20
0.5005253936451017
 30
0.0
 11
0.4521822644605727
 21
0.5198776610405538
 31
0.0
  0
LINE
  5
17A
330
17
100
AcDbEntity
  8
0
100
AcDbLine
 10
0.4211273527386136
 20
0.492039771071683
 30
0.0
 11
0.46174164333737305
 21
0.5136347724432836
 31
0.0
  0
LINE
  5
17B
330
17
100
AcDbEntity
  8
0
100
AcDbLine
 10
0.42646876247174004
 20
0.4835541484982644
 30
0.0
 11
0.47130102221417325
 21
0.5073918838460134
 31
0.0
  0
LINE
  5
17C
330
17
100
AcDbEntity
  8
0
100
AcDbLine
 10
0.43181017220486645
 20
0.4750685259248457
 30
0.0
 11
0.48086040109097367
 21
0.5011489952487432
 31
0.0
  0
LINE
  5
17D
330
17
100
AcDbEntity
  8
0
100
AcDbLine
 10
0.43715158193799286
 20
0.46658290335142705
 30
0.0
 11
0.49041977996777386
 21
0.49490610665147305
 31
0.0
  0
LINE
  5
17E
330
17
100
AcDbEntity
  8
0
100
AcDbLine
 10
0.49997915884457406
 20
0.48866321805420293
 30
0.0
 11
0.4424929916711193
 21
0.45809728077800843
 31
0.0
  0
LINE
  5
17F
330
17
100
AcDbEntity
  8
0
100
AcDbLine
 10
0.5095385377213745
 20
0.4824203294569327
 30
0.0
 11
0.4478344014042457
 21
0.44961165820458976
 31
0.0
  0
LINE
  5
180
330
17
100
AcDbEntity
  8
0
100
AcDbLine
 10
0.5190979165981746
 20
0.47617744085966257
 30
0.0
 11
0.45317581113737204
 21
0.44112603563117125
 31
0.0
  0
LINE
  5
181
330
17
100
AcDbEntity
  8
0
100
AcDbLine
 10
0.5286572954749749
 20
0.4699345522623924
 30
0.0
 11
0.4585172208704985
 21
0.43264041305775247
 31
0.0
  0
LINE
  5
182
330
17
100
AcDbEntity
  8
0
100
AcDbLine
 10
0.5382166743517751
 20
0.4636916636651222
 30
0.0
 11
0.4638586306036249
 21
0.42415479048433385
 31
0.0
  0
LINE
  5
183
330
17
100
AcDbEntity
  8
0
100
AcDbLine
 10
0.5477760532285755
 20
0.4574487750678521
 30
0.0
 11
0.46920004033675133
 21
0.4156691679109152
 31
0.0
  0
LINE
  5
184
330
17
100
AcDbEntity
  8
0
100
AcDbLine
 10
0.554457108721291
 20
0.449675454779892
 30
0.0
 11
0.47454145006987775
 21
0.4071835453374965
 31
0.0
  0
LINE
  5
185
330
17
100
AcDbEntity
  8
0
100
AcDbLine
 10
0.5357173890212168
 20
0.4283856685617799
 30
0.0
 11
0.47988285980300416
 21
0.3986979227640779
 31
0.0
  0
LINE
  5
186
330
17
100
AcDbEntity
  8
0
100
AcDbLine
 10
0.5169776693211422
 20
0.4070958823436673
 30
0.0
 11
0.4852242695361306
 21
0.3902123001906591
 31
0.0
  0
LINE
  5
187
330
17
100
AcDbEntity
  8
0
100
AcDbLine
 10
0.49823794962106793
 20
0.3858060961255551
 30
0.0
 11
0.49310719586453927
 21
0.38307802596167634
 31
0.0
  0
LINE
  5
188
330
17
100
AcDbEntity
  8
0
100
AcDbLine
 10
0.708230208929736
 20
0.45021169218179147
 30
0.0
 11
0.7116376260208855
 21
0.4365452886800046
 31
0.0
  0
LINE
  5
189
330
17
100
AcDbEntity
  8
0
100
AcDbLine
 10
0.6961170299452947
 20
0.4574593445527083
 30
0.0
 11
0.706929295324579
 21
0.4140937167211448
 31
0.0
  0
LINE
  5
18A
330
17
100
AcDbEntity
  8
0
100
AcDbLine
 10
0.6840038509608533
 20
0.46470699692362527
 30
0.0
 11
0.7022209646282725
 21
0.39164214476228476
 31
0.0
  0
LINE
  5
18B
330
17
100
AcDbEntity
  8
0
100
AcDbLine
 10
0.6718906719764121
 20
0.4719546492945421
 30
0.0
 11
0.6975126339319662
 21
0.3691905728034248
 31
0.0
  0
LINE
  5
18C
330
17
100
AcDbEntity
  8
0
100
AcDbLine
 10
0.6597774929919706
 20
0.479202301665459
 30
0.0
 11
0.6928043032356597
 21
0.3467390008445649
 31
0.0
  0
LINE
  5
18D
330
17
100
AcDbEntity
  8
0
100
AcDbLine
 10
0.6477080425721433
 20
0.4862745683431716
 30
0.0
 11
0.6880959725393532
 21
0.32428742888570494
 31
0.0
  0
LINE
  5
18E
330
17
100
AcDbEntity
  8
0
100
AcDbLine
 10
0.6381645206543711
 20
0.4832158891453658
 30
0.0
 11
0.6789925358580984
 21
0.31946366421214467
 31
0.0
  0
LINE
  5
18F
330
17
100
AcDbEntity
  8
0
100
AcDbLine
 10
0.628620998736599
 20
0.48015720994756
 30
0.0
 11
0.664365664374625
 21
0.3367931865309517
 31
0.0
  0
LINE
  5
190
330
17
100
AcDbEntity
  8
0
100
AcDbLine
 10
0.6190774768188271
 20
0.4770985307497542
 30
0.0
 11
0.6497387928911514
 21
0.3541227088497588
 31
0.0
  0
LINE
  5
191
330
17
100
AcDbEntity
  8
0
100
AcDbLine
 10
0.609533954901055
 20
0.4740398515519484
 30
0.0
 11
0.6351119214076781
 21
0.37145223116856585
 31
0.0
  0
LINE
  5
192
330
17
100
AcDbEntity
  8
0
100
AcDbLine
 10
0.5999904329832828
 20
0.4709811723541426
 30
0.0
 11
0.6204850499242045
 21
0.3887817534873731
 31
0.0
  0
LINE
  5
193
330
17
100
AcDbEntity
  8
0
100
AcDbLine
 10
0.5904469110655107
 20
0.46792249315633677
 30
0.0
 11
0.6058581784407311
 21
0.40611127580618017
 31
0.0
  0
LINE
  5
194
330
17
100
AcDbEntity
  8
0
100
AcDbLine
 10
0.5809584613429482
 20
0.46464293144801705
 30
0.0
 11
0.5912313069572577
 21
0.42344079812498725
 31
0.0
  0
LINE
  5
195
330
17
100
AcDbEntity
  8
0
100
AcDbLine
 10
0.5727798378708977
 20
0.45610994358789797
 30
0.0
 11
0.576604435473784
 21
0.4407703204437945
 31
0.0
  0
LINE
  5
196
330
17
100
AcDbEntity
  8
0
100
AcDbLine
 10
0.5680244172064526
 20
0.4797886816302428
 30
0.0
 11
0.5592872417582959
 21
0.46187481724433505
 31
0.0
  0
LINE
  5
197
330
17
100
AcDbEntity
  8
0
100
AcDbLine
 10
0.562514987103865
 20
0.49130439625304334
 30
0.0
 11
0.5508489826852709
 21
0.4673855425777191
 31
0.0
  0
LINE
  5
198
330
17
100
AcDbEntity
  8
0
100
AcDbLine
 10
0.5570055570012774
 20
0.5028201108758441
 30
0.0
 11
0.5424107236122458
 21
0.4728962679111032
 31
0.0
  0
LINE
  5
199
330
17
100
AcDbEntity
  8
0
100
AcDbLine
 10
0.5514961268986899
 20
0.5143358254986446
 30
0.0
 11
0.533972464539221
 21
0.47840699324448716
 31
0.0
  0
LINE
  5
19A
330
17
100
AcDbEntity
  8
0
100
AcDbLine
 10
0.5459866967961022
 20
0.5258515401214452
 30
0.0
 11
0.5255342054661959
 21
0.4839177185778712
 31
0.0
  0
LINE
  5
19B
330
17
100
AcDbEntity
  8
0
100
AcDbLine
 10
0.5404772666935146
 20
0.537367254744246
 30
0.0
 11
0.5170959463931708
 21
0.48942844391125523
 31
0.0
  0
LINE
  5
19C
330
17
100
AcDbEntity
  8
0
100
AcDbLine
 10
0.534967836590927
 20
0.5488829693670466
 30
0.0
 11
0.5086576873201458
 21
0.4949391692446393
 31
0.0
  0
LINE
  5
19D
330
17
100
AcDbEntity
  8
0
100
AcDbLine
 10
0.5294584064883394
 20
0.5603986839898472
 30
0.0
 11
0.5002194282471208
 21
0.5004498945780232
 31
0.0
  0
LINE
  5
19E
330
17
100
AcDbEntity
  8
0
100
AcDbLine
 10
0.4917811691740959
 20
0.5059606199114073
 30
0.0
 11
0.5234111326737235
 21
0.5708116555837067
 31
0.0
  0
LINE
  5
19F
330
17
100
AcDbEntity
  8
0
100
AcDbLine
 10
0.4833429101010708
 20
0.5114713452447914
 30
0.0
 11
0.5130288564627181
 21
0.5723365551109936
 31
0.0
  0
LINE
  5
1A0
330
17
100
AcDbEntity
  8
0
100
AcDbLine
 10
0.47490465102804585
 20
0.5169820705781754
 30
0.0
 11
0.5026465802517126
 21
0.5738614546382803
 31
0.0
  0
LINE
  5
1A1
330
17
100
AcDbEntity
  8
0
100
AcDbLine
 10
0.46646639195502076
 20
0.5224927959115594
 30
0.0
 11
0.4922643040407071
 21
0.575386354165567
 31
0.0
  0
LINE
  5
1A2
330
17
100
AcDbEntity
  8
0
100
AcDbLine
 10
0.4580281328819958
 20
0.5280035212449434
 30
0.0
 11
0.480018642504114
 21
0.573090747601459
 31
0.0
  0
LINE
  5
1A3
330
17
100
AcDbEntity
  8
0
100
AcDbLine
 10
0.4495898738089707
 20
0.5335142465783276
 30
0.0
 11
0.4635445482106554
 21
0.5621255691120899
 31
0.0
  0
LINE
  5
1A4
330
17
100
AcDbEntity
  8
0
100
AcDbLine
 10
0.4411516147359458
 20
0.5390249719117115
 30
0.0
 11
0.44707045391719696
 21
0.5511603906227209
 31
0.0
  0
LINE
  5
1A5
330
17
100
AcDbEntity
  8
0
100
AcDbLine
 10
0.4886990128650534
 20
0.5877888912460802
 30
0.0
 11
0.49864932560961817
 21
0.5845558386516939
 31
0.0
  0
LINE
  5
1A6
330
17
100
AcDbEntity
  8
0
100
AcDbLine
 10
0.488371571768273
 20
0.5984099055501629
 30
0.0
 11
0.5324085520573425
 21
0.584101423291624
 31
0.0
  0
LINE
  5
1A7
330
17
100
AcDbEntity
  8
0
100
AcDbLine
 10
0.48804413067149266
 20
0.6090309198542457
 30
0.0
 11
0.5431692425921898
 21
0.5911196852341679
 31
0.0
  0
LINE
  5
1A8
330
17
100
AcDbEntity
  8
0
100
AcDbLine
 10
0.48771668957471226
 20
0.6196519341583284
 30
0.0
 11
0.553929933127037
 21
0.5981379471767116
 31
0.0
  0
LINE
  5
1A9
330
17
100
AcDbEntity
  8
0
100
AcDbLine
 10
0.4873892484779319
 20
0.6302729484624111
 30
0.0
 11
0.5609869869348802
 21
0.6063595936395505
 31
0.0
  0
LINE
  5
1AA
330
17
100
AcDbEntity
  8
0
100
AcDbLine
 10
0.4870618073811515
 20
0.6408939627664939
 30
0.0
 11
0.5639956460093368
 21
0.6158966432893924
 31
0.0
  0
LINE
  5
1AB
330
17
100
AcDbEntity
  8
0
100
AcDbLine
 10
0.48673436628437117
 20
0.6515149770705766
 30
0.0
 11
0.5662423595992785
 21
0.6256812640346089
 31
0.0
  0
LINE
  5
1AC
330
17
100
AcDbEntity
  8
0
100
AcDbLine
 10
0.4864069251875908
 20
0.6621359913746593
 30
0.0
 11
0.5684890731892202
 21
0.6354658847798254
 31
0.0
  0
LINE
  5
1AD
330
17
100
AcDbEntity
  8
0
100
AcDbLine
 10
0.6440301560734495
 20
0.5188862968294145
 30
0.0
 11
0.6406026534150049
 21
0.4944983481901268
 31
0.0
  0
LINE
  5
1AE
330
17
100
AcDbEntity
  8
0
100
AcDbLine
 10
0.637889401359724
 20
0.5470455220100614
 30
0.0
 11
0.6300280660296596
 21
0.4911092146250114
 31
0.0
  0
LINE
  5
1AF
330
17
100
AcDbEntity
  8
0
100
AcDbLine
 10
0.6285850399319161
 20
0.5526945157637945
 30
0.0
 11
0.6194534786443142
 21
0.48772008105989606
 31
0.0
  0
LINE
  5
1B0
330
17
100
AcDbEntity
  8
0
100
AcDbLine
 10
0.6192806785041081
 20
0.5583435095175274
 30
0.0
 11
0.6088788912589688
 21
0.4843309474947807
 31
0.0
  0
LINE
  5
1B1
330
17
100
AcDbEntity
  8
0
100
AcDbLine
 10
0.6099763170763002
 20
0.5639925032712605
 30
0.0
 11
0.5983043038736233
 21
0.4809418139296653
 31
0.0
  0
LINE
  5
1B2
330
17
100
AcDbEntity
  8
0
100
AcDbLine
 10
0.6006719556484922
 20
0.5696414970249936
 30
0.0
 11
0.5877297164882779
 21
0.4775526803645499
 31
0.0
  0
LINE
  5
1B3
330
17
100
AcDbEntity
  8
0
100
AcDbLine
 10
0.5913675942206843
 20
0.5752904907787266
 30
0.0
 11
0.5782100454338277
 21
0.4816696665199341
 31
0.0
  0
LINE
  5
1B4
330
17
100
AcDbEntity
  8
0
100
AcDbLine
 10
0.5820632327928763
 20
0.5809394845324596
 30
0.0
 11
0.5704046511162301
 21
0.4979843654645071
 31
0.0
  0
LINE
  5
1B5
330
17
100
AcDbEntity
  8
0
100
AcDbLine
 10
0.5727588713650684
 20
0.5865884782861926
 30
0.0
 11
0.5625992567986323
 21
0.51429906440908
 31
0.0
  0
LINE
  5
1B6
330
17
100
AcDbEntity
  8
0
100
AcDbLine
 10
0.5634545099372604
 20
0.5922374720399257
 30
0.0
 11
0.5547938624810347
 21
0.530613763353653
 31
0.0
  0
LINE
  5
1B7
330
17
100
AcDbEntity
  8
0
100
AcDbLine
 10
0.552364051246864
 20
0.5851777234102038
 30
0.0
 11
0.546988468163437
 21
0.5469284622982259
 31
0.0
  0
LINE
  5
1B8
330
17
100
AcDbEntity
  8
0
100
AcDbLine
 10
0.5412467337956591
 20
0.5779268647670435
 30
0.0
 11
0.5391830738458393
 21
0.5632431612427989
 31
0.0
  0
LINE
  5
1B9
330
17
100
AcDbEntity
  8
0
100
AcDbLine
 10
0.7449059573536407
 20
0.46619570962983964
 30
0.0
 11
0.7152193408987897
 21
0.4576832093426196
 31
0.0
  0
LINE
  5
1BA
330
17
100
AcDbEntity
  8
0
100
AcDbLine
 10
0.7471917789005491
 20
0.4772541527696997
 30
0.0
 11
0.7034655177045203
 21
0.46471584913525404
 31
0.0
  0
LINE
  5
1BB
330
17
100
AcDbEntity
  8
0
100
AcDbLine
 10
0.7494776004474574
 20
0.4883125959095597
 30
0.0
 11
0.6917116945102508
 21
0.4717484889278884
 31
0.0
  0
LINE
  5
1BC
330
17
100
AcDbEntity
  8
0
100
AcDbLine
 10
0.7505996526389346
 20
0.49903733355666235
 30
0.0
 11
0.6799578713159814
 21
0.4787811287205228
 31
0.0
  0
LINE
  5
1BD
330
17
100
AcDbEntity
  8
0
100
AcDbLine
 10
0.7508828385204213
 20
0.5095215301601067
 30
0.0
 11
0.6682040481217119
 21
0.4858137685131573
 31
0.0
  0
LINE
  5
1BE
330
17
100
AcDbEntity
  8
0
100
AcDbLine
 10
0.7511660244019079
 20
0.5200057267635512
 30
0.0
 11
0.6564502249274424
 21
0.4928464083057917
 31
0.0
  0
LINE
  5
1BF
330
17
100
AcDbEntity
  8
0
100
AcDbLine
 10
0.7514492102833946
 20
0.5304899233669954
 30
0.0
 11
0.6537087947194263
 21
0.5024633102018792
 31
0.0
  0
LINE
  5
1C0
330
17
100
AcDbEntity
  8
0
100
AcDbLine
 10
0.7517323961648813
 20
0.5409741199704399
 30
0.0
 11
0.6539147480311674
 21
0.5129253607223188
 31
0.0
  0
LINE
  5
1C1
330
17
100
AcDbEntity
  8
0
100
AcDbLine
 10
0.7468789541381118
 20
0.5499854122228318
 30
0.0
 11
0.6541207013429086
 21
0.5233874112427582
 31
0.0
  0
LINE
  5
1C2
330
17
100
AcDbEntity
  8
0
100
AcDbLine
 10
0.7417476918579604
 20
0.5589170407994962
 30
0.0
 11
0.6801705340461873
 21
0.5412600749288284
 31
0.0
  0
LINE
  5
1C3
330
17
100
AcDbEntity
  8
0
100
AcDbLine
 10
0.7366164295778089
 20
0.5678486693761606
 30
0.0
 11
0.7102131785117509
 21
0.5602776589639371
 31
0.0
  0
LINE
  5
1C4
330
17
100
AcDbEntity
  8
0
100
AcDbLine
 10
0.6415197981428405
 20
0.5586124827858454
 30
0.0
 11
0.6397702346909391
 21
0.5576023718559259
 31
0.0
  0
LINE
  5
1C5
330
17
100
AcDbEntity
  8
0
100
AcDbLine
 10
0.6452672200156973
 20
0.5723230631966991
 30
0.0
 11
0.6300216832568235
 21
0.5635210484450228
 31
0.0
  0
LINE
  5
1C6
330
17
100
AcDbEntity
  8
0
100
AcDbLine
 10
0.6490146418885538
 20
0.5860336436075524
 30
0.0
 11
0.6202731318227079
 21
0.5694397250341199
 31
0.0
  0
LINE
  5
1C7
330
17
100
AcDbEntity
  8
0
100
AcDbLine
 10
0.6105245803885925
 20
0.5753584016232168
 30
0.0
 11
0.6527620637614104
 21
0.5997442240184057
 31
0.0
  0
LINE
  5
1C8
330
17
100
AcDbEntity
  8
0
100
AcDbLine
 10
0.6007760289544768
 20
0.5812770782123139
 30
0.0
 11
0.6382992640958562
 21
0.6029411281220549
 31
0.0
  0
LINE
  5
1C9
330
17
100
AcDbEntity
  8
0
100
AcDbLine
 10
0.5910274775203613
 20
0.5871957548014108
 30
0.0
 11
0.6193519339405977
 21
0.6035488873402841
 31
0.0
  0
LINE
  5
1CA
330
17
100
AcDbEntity
  8
0
100
AcDbLine
 10
0.5812789260862458
 20
0.5931144313905078
 30
0.0
 11
0.600404603785339
 21
0.6041566465585133
 31
0.0
  0
LINE
  5
1CB
330
17
100
AcDbEntity
  8
0
100
AcDbLine
 10
0.5715303746521302
 20
0.5990331079796047
 30
0.0
 11
0.5814572736300804
 21
0.6047644057767425
 31
0.0
  0
LINE
  5
1CC
330
17
100
AcDbEntity
  8
0
100
AcDbLine
 10
0.5181760924868645
 20
0.20195380306222535
 30
0.0
 11
0.5158476406682359
 21
0.2
 31
0.0
  0
LINE
  5
1CD
330
17
100
AcDbEntity
  8
0
100
AcDbLine
 10
0.5110856786668709
 20
0.20905831233429714
 30
0.0
 11
0.5002904023996319
 21
0.2
 31
0.0
  0
LINE
  5
1CE
330
17
100
AcDbEntity
  8
0
100
AcDbLine
 10
0.5039952648468773
 20
0.21616282160636913
 30
0.0
 11
0.4847331641310276
 21
0.2
 31
0.0
  0
LINE
  5
1CF
330
17
100
AcDbEntity
  8
0
100
AcDbLine
 10
0.49690485102688364
 20
0.22326733087844103
 30
0.0
 11
0.4691759258624235
 21
0.2
 31
0.0
  0
LINE
  5
1D0
330
17
100
AcDbEntity
  8
0
100
AcDbLine
 10
0.48981443720689016
 20
0.23037184015051282
 30
0.0
 11
0.46075106544660416
 21
0.2059847756256887
 31
0.0
  0
LINE
  5
1D1
330
17
100
AcDbEntity
  8
0
100
AcDbLine
 10
0.4827240233868966
 20
0.23747634942258475
 30
0.0
 11
0.46124882648891913
 21
0.21945651962603233
 31
0.0
  0
LINE
  5
1D2
330
17
100
AcDbEntity
  8
0
100
AcDbLine
 10
0.37459698159277666
 20
0.29049926780334107
 30
0.0
 11
0.36673578146892627
 21
0.3545236049516155
 31
0.0
  0
LINE
  5
1D3
330
17
100
AcDbEntity
  8
0
100
AcDbLine
 10
0.3645362522392095
 20
0.2903822424956344
 30
0.0
 11
0.3565632808515778
 21
0.355316883536836
 31
0.0
  0
LINE
  5
1D4
330
17
100
AcDbEntity
  8
0
100
AcDbLine
 10
0.3544755228856423
 20
0.2902652171879277
 30
0.0
 11
0.3471992263051138
 21
0.3495258972524389
 31
0.0
  0
LINE
  5
1D5
330
17
100
AcDbEntity
  8
0
100
AcDbLine
 10
0.34441479353207516
 20
0.29014819188022095
 30
0.0
 11
0.33783517175864974
 21
0.3437349109680417
 31
0.0
  0
LINE
  5
1D6
330
17
100
AcDbEntity
  8
0
100
AcDbLine
 10
0.33435406417850794
 20
0.29003116657251427
 30
0.0
 11
0.32847111721218575
 21
0.3379439246836446
 31
0.0
  0
LINE
  5
1D7
330
17
100
AcDbEntity
  8
0
100
AcDbLine
 10
0.32429333482494077
 20
0.2899141412648075
 30
0.0
 11
0.31910706266572164
 21
0.3321529383992474
 31
0.0
  0
LINE
  5
1D8
330
17
100
AcDbEntity
  8
0
100
AcDbLine
 10
0.3142326054713736
 20
0.28979711595710084
 30
0.0
 11
0.3097430081192577
 21
0.3263619521148503
 31
0.0
  0
LINE
  5
1D9
330
17
100
AcDbEntity
  8
0
100
AcDbLine
 10
0.3041718761178064
 20
0.28968009064939415
 30
0.0
 11
0.3003789535727936
 21
0.32057096583045314
 31
0.0
  0
LINE
  5
1DA
330
17
100
AcDbEntity
  8
0
100
AcDbLine
 10
0.29263966262554314
 20
0.30154734193049754
 30
0.0
 11
0.29101489902632954
 21
0.31477997954605597
 31
0.0
  0
LINE
  5
1DB
330
17
100
AcDbEntity
  8
0
100
AcDbLine
 10
0.372960186611987
 20
0.2609089170172656
 30
0.0
 11
0.3774905898764505
 21
0.2805322494580677
 31
0.0
  0
LINE
  5
1DC
330
17
100
AcDbEntity
  8
0
100
AcDbLine
 10
0.35567101088771985
 20
0.2304753843072012
 30
0.0
 11
0.3671999138709346
 21
0.2804125494359586
 31
0.0
  0
LINE
  5
1DD
330
17
100
AcDbEntity
  8
0
100
AcDbLine
 10
0.3422833614005254
 20
0.2169412183659039
 30
0.0
 11
0.35690923786541867
 21
0.2802928494138495
 31
0.0
  0
LINE
  5
1DE
330
17
100
AcDbEntity
  8
0
100
AcDbLine
 10
0.3350050931274123
 20
0.22986968976020453
 30
0.0
 11
0.3466185618599027
 21
0.28017314939174043
 31
0.0
  0
LINE
  5
1DF
330
17
100
AcDbEntity
  8
0
100
AcDbLine
 10
0.3277268248542991
 20
0.24279816115450514
 30
0.0
 11
0.3363278858543868
 21
0.28005344936963134
 31
0.0
  0
LINE
  5
1E0
330
17
100
AcDbEntity
  8
0
100
AcDbLine
 10
0.32044855658118593
 20
0.2557266325488058
 30
0.0
 11
0.32603720984887086
 21
0.27993374934752224
 31
0.0
  0
LINE
  5
1E1
330
17
100
AcDbEntity
  8
0
100
AcDbLine
 10
0.3131702883080728
 20
0.2686551039431063
 30
0.0
 11
0.31574653384335494
 21
0.27981404932541315
 31
0.0
  0
LINE
  5
1E2
330
17
100
AcDbEntity
  8
0
100
AcDbLine
 10
0.5817825916785234
 20
0.20646850407447126
 30
0.0
 11
0.575750614044336
 21
0.2
 31
0.0
  0
LINE
  5
1E3
330
17
100
AcDbEntity
  8
0
100
AcDbLine
 10
0.5747997314360576
 20
0.21364309510037172
 30
0.0
 11
0.56207733943335
 21
0.2
 31
0.0
  0
LINE
  5
1E4
330
17
100
AcDbEntity
  8
0
100
AcDbLine
 10
0.5678168711935917
 20
0.22081768612627212
 30
0.0
 11
0.5484040648223641
 21
0.2
 31
0.0
  0
LINE
  5
1E5
330
17
100
AcDbEntity
  8
0
100
AcDbLine
 10
0.5608340109511257
 20
0.22799227715217263
 30
0.0
 11
0.5347307902113781
 21
0.2
 31
0.0
  0
LINE
  5
1E6
330
17
100
AcDbEntity
  8
0
100
AcDbLine
 10
0.5538511507086599
 20
0.23516686817807303
 30
0.0
 11
0.527431950426848
 21
0.2068357444519827
 31
0.0
  0
LINE
  5
1E7
330
17
100
AcDbEntity
  8
0
100
AcDbLine
 10
0.5468682904661939
 20
0.24234145920397354
 30
0.0
 11
0.5203633531719797
 21
0.213918393788492
 31
0.0
  0
LINE
  5
1E8
330
17
100
AcDbEntity
  8
0
100
AcDbLine
 10
0.539885430223728
 20
0.24951605022987394
 30
0.0
 11
0.5132947559171115
 21
0.22100104312500116
 31
0.0
  0
LINE
  5
1E9
330
17
100
AcDbEntity
  8
0
100
AcDbLine
 10
0.5329025699812622
 20
0.25669064125577434
 30
0.0
 11
0.5062261586622433
 21
0.2280836924615103
 31
0.0
  0
LINE
  5
1EA
330
17
100
AcDbEntity
  8
0
100
AcDbLine
 10
0.5259197097387962
 20
0.26386523228167486
 30
0.0
 11
0.49915756140737505
 21
0.2351663417980196
 31
0.0
  0
LINE
  5
1EB
330
17
100
AcDbEntity
  8
0
100
AcDbLine
 10
0.5189368494963303
 20
0.2710398233075753
 30
0.0
 11
0.4920889641525068
 21
0.2422489911345288
 31
0.0
  0
LINE
  5
1EC
330
17
100
AcDbEntity
  8
0
100
AcDbLine
 10
0.5119539892538645
 20
0.2782144143334757
 30
0.0
 11
0.48502036689763856
 21
0.249331640471038
 31
0.0
  0
LINE
  5
1ED
330
17
100
AcDbEntity
  8
0
100
AcDbLine
 10
0.5049711290113984
 20
0.2853890053593763
 30
0.0
 11
0.48129899547487326
 21
0.2600037500552808
 31
0.0
  0
LINE
  5
1EE
330
17
100
AcDbEntity
  8
0
100
AcDbLine
 10
0.5671545473113891
 20
0.6831813252329189
 30
0.0
 11
0.5747722499750588
 21
0.6822459889562713
 31
0.0
  0
LINE
  5
1EF
330
17
100
AcDbEntity
  8
0
100
AcDbLine
 10
0.563336493450127
 20
0.693725221554366
 30
0.0
 11
0.5832457335050807
 21
0.6912806742563081
 31
0.0
  0
LINE
  5
1F0
330
17
100
AcDbEntity
  8
0
100
AcDbLine
 10
0.5598974704317143
 20
0.7042225787402052
 30
0.0
 11
0.5872808715673883
 21
0.7008603198557335
 31
0.0
  0
LINE
  5
1F1
330
17
100
AcDbEntity
  8
0
100
AcDbLine
 10
0.5745964111349714
 20
0.7124928740148065
 30
0.0
 11
0.5808644630645221
 21
0.7117232540109201
 31
0.0
  0
LINE
  5
1F2
330
17
100
AcDbEntity
  8
0
100
AcDbLine
 10
0.5581014592971435
 20
0.6580843196934589
 30
0.0
 11
0.5624250285852762
 21
0.6665698021996277
 31
0.0
  0
LINE
  5
1F3
330
17
100
AcDbEntity
  8
0
100
AcDbLine
 10
0.5483884950587714
 20
0.6610484466854868
 30
0.0
 11
0.5578263506818746
 21
0.6795712812808301
 31
0.0
  0
LINE
  5
1F4
330
17
100
AcDbEntity
  8
0
100
AcDbLine
 10
0.5386755308203993
 20
0.6640125736775148
 30
0.0
 11
0.5531637847441763
 21
0.6924473730347458
 31
0.0
  0
LINE
  5
1F5
330
17
100
AcDbEntity
  8
0
100
AcDbLine
 10
0.5289625665820272
 20
0.6669767006695427
 30
0.0
 11
0.547186103910132
 21
0.7027424064771464
 31
0.0
  0
LINE
  5
1F6
330
17
100
AcDbEntity
  8
0
100
AcDbLine
 10
0.5192496023436552
 20
0.6699408276615707
 30
0.0
 11
0.5372271779724632
 21
0.7052238064541825
 31
0.0
  0
LINE
  5
1F7
330
17
100
AcDbEntity
  8
0
100
AcDbLine
 10
0.5095366381052833
 20
0.6729049546535987
 30
0.0
 11
0.5272682520347944
 21
0.7077052064312186
 31
0.0
  0
LINE
  5
1F8
330
17
100
AcDbEntity
  8
0
100
AcDbLine
 10
0.49982367386691134
 20
0.6758690816456265
 30
0.0
 11
0.5173093260971257
 21
0.7101866064082547
 31
0.0
  0
LINE
  5
1F9
330
17
100
AcDbEntity
  8
0
100
AcDbLine
 10
0.4901107096285394
 20
0.6788332086376544
 30
0.0
 11
0.5073504001594569
 21
0.7126680063852908
 31
0.0
  0
LINE
  5
1FA
330
17
100
AcDbEntity
  8
0
100
AcDbLine
 10
0.48219174527291114
 20
0.6853182586464307
 30
0.0
 11
0.49739147422178787
 21
0.7151494063623269
 31
0.0
  0
LINE
  5
1FB
330
17
100
AcDbEntity
  8
0
100
AcDbLine
 10
0.5744960025377275
 20
0.6169423992058989
 30
0.0
 11
0.5752139660197579
 21
0.614969810751027
 31
0.0
  0
LINE
  5
1FC
330
17
100
AcDbEntity
  8
0
100
AcDbLine
 10
0.5792847507907701
 20
0.6330234655148426
 30
0.0
 11
0.5859814519753097
 21
0.6146244302254851
 31
0.0
  0
LINE
  5
1FD
330
17
100
AcDbEntity
  8
0
100
AcDbLine
 10
0.5888796208218336
 20
0.6358998207635246
 30
0.0
 11
0.5967489379308613
 21
0.6142790496999431
 31
0.0
  0
LINE
  5
1FE
330
17
100
AcDbEntity
  8
0
100
AcDbLine
 10
0.5984744908528972
 20
0.6387761760122066
 30
0.0
 11
0.6075164238864129
 21
0.6139336691744012
 31
0.0
  0
LINE
  5
1FF
330
17
100
AcDbEntity
  8
0
100
AcDbLine
 10
0.6080693608839606
 20
0.6416525312608886
 30
0.0
 11
0.6182839098419646
 21
0.6135882886488592
 31
0.0
  0
LINE
  5
200
330
17
100
AcDbEntity
  8
0
100
AcDbLine
 10
0.6176642309150242
 20
0.6445288865095706
 30
0.0
 11
0.6290513957975161
 21
0.6132429081233173
 31
0.0
  0
LINE
  5
201
330
17
100
AcDbEntity
  8
0
100
AcDbLine
 10
0.6292167182294331
 20
0.6420267324763268
 30
0.0
 11
0.6398188817530678
 21
0.6128975275977753
 31
0.0
  0
LINE
  5
202
330
17
100
AcDbEntity
  8
0
100
AcDbLine
 10
0.6426433497476322
 20
0.634375409562368
 30
0.0
 11
0.6505863677086193
 21
0.6125521470722333
 31
0.0
  0
LINE
  5
203
330
17
100
AcDbEntity
  8
0
100
AcDbLine
 10
0.6560699812658313
 20
0.6267240866484091
 30
0.0
 11
0.6592081611757483
 21
0.6181020082077258
 31
0.0
  0
LINE
  5
204
330
17
100
AcDbEntity
  8
0
100
AcDbLine
 10
0.5756009311198951
 20
0.6685115952724282
 30
0.0
 11
0.5778305273521607
 21
0.6430271937235933
 31
0.0
  0
LINE
  5
205
330
17
100
AcDbEntity
  8
0
100
AcDbLine
 10
0.5847826322429943
 20
0.6783014036637807
 30
0.0
 11
0.587612178469153
 21
0.6459595423057053
 31
0.0
  0
LINE
  5
206
330
17
100
AcDbEntity
  8
0
100
AcDbLine
 10
0.5939643333660934
 20
0.6880912120551331
 30
0.0
 11
0.5973938295861454
 21
0.6488918908878172
 31
0.0
  0
LINE
  5
207
330
17
100
AcDbEntity
  8
0
100
AcDbLine
 10
0.6039055753870208
 20
0.6891994282582233
 30
0.0
 11
0.6071754807031378
 21
0.6518242394699291
 31
0.0
  0
LINE
  5
208
330
17
100
AcDbEntity
  8
0
100
AcDbLine
 10
0.614211282474573
 20
0.6861417896872612
 30
0.0
 11
0.6169571318201301
 21
0.6547565880520411
 31
0.0
  0
LINE
  5
209
330
17
100
AcDbEntity
  8
0
100
AcDbLine
 10
0.3644619172527389
 20
0.22239644223769683
 30
0.0
 11
0.3635532545380861
 21
0.22410538825321782
 31
0.0
  0
LINE
  5
20A
330
17
100
AcDbEntity
  8
0
100
AcDbLine
 10
0.3755418809112364
 20
0.2228586060319801
 30
0.0
 11
0.3694034588778303
 21
0.23440329880567207
 31
0.0
  0
LINE
  5
20B
330
17
100
AcDbEntity
  8
0
100
AcDbLine
 10
0.3866218445697339
 20
0.22332076982626337
 30
0.0
 11
0.37525366321757453
 21
0.24470120935812628
 31
0.0
  0
LINE
  5
20C
330
17
100
AcDbEntity
  8
0
100
AcDbLine
 10
0.3977018082282314
 20
0.22378293362054666
 30
0.0
 11
0.38110386755731873
 21
0.2549991199105806
 31
0.0
  0
LINE
  5
20D
330
17
100
AcDbEntity
  8
0
100
AcDbLine
 10
0.408781771886729
 20
0.22424509741482992
 30
0.0
 11
0.38695407189706293
 21
0.2652970304630349
 31
0.0
  0
LINE
  5
20E
330
17
100
AcDbEntity
  8
0
100
AcDbLine
 10
0.41986173554522643
 20
0.22470726120911322
 30
0.0
 11
0.3928042762368071
 21
0.275594941015489
 31
0.0
  0
LINE
  5
20F
330
17
100
AcDbEntity
  8
0
100
AcDbLine
 10
0.430941699203724
 20
0.22516942500339648
 30
0.0
 11
0.40480704934842165
 21
0.27432155264882346
 31
0.0
  0
LINE
  5
210
330
17
100
AcDbEntity
  8
0
100
AcDbLine
 10
0.44202166286222155
 20
0.22563158879767978
 30
0.0
 11
0.4175402162874203
 21
0.271674493280871
 31
0.0
  0
LINE
  5
211
330
17
100
AcDbEntity
  8
0
100
AcDbLine
 10
0.4531016265207189
 20
0.22609375259196304
 30
0.0
 11
0.4302733832264187
 21
0.26902743391291856
 31
0.0
  0
LINE
  5
212
330
17
100
AcDbEntity
  8
0
100
AcDbLine
 10
0.4593449440722513
 20
0.2356523247231303
 30
0.0
 11
0.44300655016541746
 21
0.2663803745449661
 31
0.0
  0
LINE
  5
213
330
17
100
AcDbEntity
  8
0
100
AcDbLine
 10
0.46543082727057994
 20
0.24550698780892213
 30
0.0
 11
0.45573971710441596
 21
0.26373331517701365
 31
0.0
  0
LINE
  5
214
330
17
100
AcDbEntity
  8
0
100
AcDbLine
 10
0.47082916935574476
 20
0.25665472766225483
 30
0.0
 11
0.4684728840434145
 21
0.26108625580906125
 31
0.0
  0
LINE
  5
215
330
17
100
AcDbEntity
  8
0
100
AcDbLine
 10
0.3471423651516713
 20
0.2
 30
0.0
 11
0.3452025898409671
 21
0.20266987166742964
 31
0.0
  0
LINE
  5
216
330
17
100
AcDbEntity
  8
0
100
AcDbLine
 10
0.35950304492666924
 20
0.2
 30
0.0
 11
0.3524451970436249
 21
0.20971429422365795
 31
0.0
  0
LINE
  5
217
330
17
100
AcDbEntity
  8
0
100
AcDbLine
 10
0.37186372470166695
 20
0.2
 30
0.0
 11
0.36291051559395554
 21
0.2123230351460518
 31
0.0
  0
LINE
  5
218
330
17
100
AcDbEntity
  8
0
100
AcDbLine
 10
0.3842244044766649
 20
0.2
 30
0.0
 11
0.37490761950463475
 21
0.21282345439241981
 31
0.0
  0
LINE
  5
219
330
17
100
AcDbEntity
  8
0
100
AcDbLine
 10
0.39658508425166283
 20
0.2
 30
0.0
 11
0.3869047234153139
 21
0.21332387363878783
 31
0.0
  0
LINE
  5
21A
330
17
100
AcDbEntity
  8
0
100
AcDbLine
 10
0.40894576402666066
 20
0.2
 30
0.0
 11
0.398901827325993
 21
0.21382429288515584
 31
0.0
  0
LINE
  5
21B
330
17
100
AcDbEntity
  8
0
100
AcDbLine
 10
0.42130644380165866
 20
0.2
 30
0.0
 11
0.41089893123667226
 21
0.21432471213152385
 31
0.0
  0
LINE
  5
21C
330
17
100
AcDbEntity
  8
0
100
AcDbLine
 10
0.43366712357665643
 20
0.2
 30
0.0
 11
0.4228960351473513
 21
0.21482513137789183
 31
0.0
  0
LINE
  5
21D
330
17
100
AcDbEntity
  8
0
100
AcDbLine
 10
0.4460278033516545
 20
0.2
 30
0.0
 11
0.43489313905803056
 21
0.21532555062425984
 31
0.0
  0
LINE
  5
21E
330
17
100
AcDbEntity
  8
0
100
AcDbLine
 10
0.45090375131284727
 20
0.21030184954809691
 30
0.0
 11
0.4468902429687097
 21
0.21582596987062785
 31
0.0
  0
ENDSEC
  0
SECTION
  2
OBJECTS
  0
DICTIONARY
  5
A
330
0
100
AcDbDictionary
281
1
  3
ACAD_COLOR
350
B
  3
ACAD_GROUP
350
C
  3
ACAD_LAYOUT
350
D
  3
ACAD_MATERIAL
350
E
  3
ACAD_MLEADERSTYLE
350
F
  3
ACAD_MLINESTYLE
350
10
  3
ACAD_PLOTSETTINGS
350
11
  3
ACAD_PLOTSTYLENAME
350
12
  3
ACAD_SCALELIST
350
14
  3
ACAD_TABLESTYLE
350
15
  3
ACAD_VISUALSTYLE
350
16
  3
EZDXF_META
350
2D
  0
DICTIONARY
  5
B
330
A
100
AcDbDictionary
281
1
  0
DICTIONARY
  5
C
330
A
100
AcDbDictionary
281
1
  0
DICTIONARY
  5
D
330
A
100
AcDbDictionary
281
1
  3
Model
350
1A
  3
Layout1
350
1E
  0
DICTIONARY
  5
E
330
A
100
AcDbDictionary
281
1
  3
ByBlock
350
1F
  3
ByLayer
350
20
  3
Global
350
21
  0
DICTIONARY
  5
F
330
A
100
AcDbDictionary
281
1
  3
Standard
350
2C
  0
DICTIONARY
  5
10
330
A
100
AcDbDictionary
281
1
  3
Standard
350
22
  0
DICTIONARY
  5
11
330
A
100
AcDbDictionary
281
1
  0
ACDBDICTIONARYWDFLT
  5
12
330
A
100
AcDbDictionary
281
1
  3
Normal
350
13
100
AcDbDictionaryWithDefault
340
13
  0
ACDBPLACEHOLDER
  5
13
330
12
  0
DICTIONARY
  5
14
330
A
100
AcDbDictionary
281
1
  0
DICTIONARY
  5
15
330
A
100
AcDbDictionary
281
1
  0
DICTIONARY
  5
16
330
A
100
AcDbDictionary
281
1
  0
LAYOUT
  5
1A
330
D
100
AcDbPlotSettings
  1

  2
Adobe PDF
  4
A3
  6

 40
7.5
 41
20.0
 42
7.5
 43
20.0
 44
420.0
 45
297.0
 46
0.0
 47
0.0
 48
0.0
 49
0.0
140
0.0
141
0.0
142
1.0
143
1.0
 70
1024
 72
1
 73
1
 74
5
  7

 75
16
 76
0
 77
2
 78
300
147
1.0
148
0.0
149
0.0
100
AcDbLayout
  1
Model
 70
1
 71
0
 10
0.0
 20
0.0
 11
420.0
 21
297.0
 12
0.0
 22
0.0
 32
0.0
 14
1e+20
 24
1e+20
 34
1e+20
 15
-1e+20
 25
-1e+20
 35
-1e+20
146
0.0
 13
0.0
 23
0.0
 33
0.0
 16
1.0
 26
0.0
 36
0.0
 17
0.0
 27
1.0
 37
0.0
 76
1
330
17
  0
LAYOUT
  5
1E
330
D
100
AcDbPlotSettings
  1

  2
Adobe PDF
  4
A3
  6

 40
7.5
 41
20.0
 42
7.5
 43
20.0
 44
420.0
 45
297.0
 46
0.0
 47
0.0
 48
0.0
 49
0.0
140
0.0
141
0.0
142
1.0
143
1.0
 70
0
 72
1
 73
1
 74
5
  7

 75
16
 76
0
 77
2
 78
300
147
1.0
148
0.0
149
0.0
100
AcDbLayout
  1
Layout1
 70
1
 71
1
 10
0.0
 20
0.0
 11
420.0
 21
297.0
 12
0.0
 22
0.0
 32
0.0
 14
1e+20
 24
1e+20
 34
1e+20
 15
-1e+20
 25
-1e+20
 35
-1e+20
146
0.0
 13
0.0
 23
0.0
 33
0.0
 16
1.0
 26
0.0
 36
0.0
 17
0.0
 27
1.0
 37
0.0
 76
1
330
1B
  0
MATERIAL
  5
1F
102
{ACAD_REACTORS
330
E
102
}
330
E
100
AcDbMaterial
  1
ByBlock
  2

 70
0
 40
1.0
 71
1
 41
1.0
 91
-1023410177
 42
1.0
 72
1
  3

 73
1
 74
1
 75
1
 44
0.5
 73
0
 45
1.0
 46
1.0
 77
1
  4

 78
1
 79
1
170
1
 48
1.0
171
1
  6

172
1
173
1
174
1
140
1.0
141
1.0
175
1
  7

176
1
177
1
178
1
143
1.0
179
1
  8

270
1
271
1
272
1
145
1.0
146
1.0
273
1
  9

274
1
275
1
276
1
 42
1.0
 72
1
  3

 73
1
 74
1
 75
1
 94
63
  0
MATERIAL
  5
20
102
{ACAD_REACTORS
330
E
102
}
330
E
100
AcDbMaterial
  1
ByLayer
  2

 70
0
 40
1.0
 71
1
 41
1.0
 91
-1023410177
 42
1.0
 72
1
  3

 73
1
 74
1
 75
1
 44
0.5
 73
0
 45
1.0
 46
1.0
 77
1
  4

 78
1
 79
1
170
1
 48
1.0
171
1
  6

172
1
173
1
174
1
140
1.0
141
1.0
175
1
  7

176
1
177
1
178
1
143
1.0
179
1
  8

270
1
271
1
272
1
145
1.0
146
1.0
273
1
  9

274
1
275
1
276
1
 42
1.0
 72
1
  3

 73
1
 74
1
 75
1
 94
63
  0
MATERIAL
  5
21
102
{ACAD_REACTORS
330
E
102
}
330
E
100
AcDbMaterial
  1
Global
  2

 70
0
 40
1.0
 71
1
 41
1.0
 91
-1023410177
 42
1.0
 72
1
  3

 73
1
 74
1
 75
1
 44
0.5
 73
0
 45
1.0
 46
1.0
 77
1
  4

 78
1
 79
1
170
1
 48
1.0
171
1
  6

172
1
173
1
174
1
140
1.0
141
1.0
175
1
  7

176
1
177
1
178
1
143
1.0
179
1
  8

270
1
271
1
272
1
145
1.0
146
1.0
273
1
  9

274
1
275
1
276
1
 42
1.0
 72
1
  3

 73
1
 74
1
 75
1
 94
63
  0
MLINESTYLE
  5
22
102
{ACAD_REACTORS
330
10
102
}
330
10
100
AcDbMlineStyle
  2
Standard
 70
0
  3

 62
256
 51
90.0
 52
90.0
 71
2
 49
0.5
 62
256
  6
BYLAYER
 49
-0.5
 62
256
  6
BYLAYER
  0
MLEADERSTYLE
  5
2C
102
{ACAD_REACTORS
330
F
102
}
330
F
100
AcDbMLeaderStyle
179
2
170
2
171
1
172
0
 90
2
 40
0.0
 41
0.0
173
1
 91
-1056964608
 92
-2
290
1
 42
2.0
291
1
 43
8.0
  3
Standard
 44
4.0
300

342
29
174
1
175
1
176
0
178
1
 93
-1056964608
 45
4.0
292
0
297
0
 46
4.0
 94
-1056964608
 47
1.0
 49
1.0
140
1.0
294
1
141
0.0
177
0
142
1.0
295
0
296
0
143
3.75
271
0
272
9
273
9
  0
DICTIONARY
  5
2D
330
A
100
AcDbDictionary
280
1
281
1
  3
CREATED_BY_EZDXF
350
2E
  3
WRITTEN_BY_EZDXF
350
221
  0
DICTIONARYVAR
  5
2E
330
2D
100
DictionaryVariables
280
0
  1
0.17.2 @ 2022-04-25T01:26:54.276923+00:00
  0
DICTIONARYVAR
  5
221
330
2D
100
DictionaryVariables
280
0
  1
0.17.2 @ 2022-04-25T01:28:05.121993+00:00
  0
ENDSEC
  0
EOF
